<?xml version="1.0" encoding="utf-8"?>
<!-- Generator: Adobe Illustrator 23.0.3, SVG Export Plug-In . SVG Version: 6.00 Build 0)  -->
<svg version="1.1" id="Calque_1" xmlns="http://www.w3.org/2000/svg" xmlns:xlink="http://www.w3.org/1999/xlink" x="0px" y="0px"
	 viewBox="0 0 841.9 595.3" style="enable-background:new 0 0 841.9 595.3;" xml:space="preserve">
<style type="text/css">
	.st0{fill:#423E3B;}
	.st1{fill:#54504F;}
	.st2{fill:#6D6968;}
	.st3{fill:#898583;}
	.st4{fill:#A29F9D;}
	.st5{fill:#BDBBBA;}
	.st6{fill:#FFEDAE;}
	.st7{fill:#332A1A;}
	.st8{fill:#5C4B42;}
	.st9{fill:#6B5A4B;}
	.st10{fill:#7C6757;}
	.st11{fill:#282522;}
	.st12{fill:#3D5423;}
	.st13{fill:#65843B;}
	.st14{fill:#526D30;}
	.st15{fill:#213410;}
	.st16{fill:#30451B;}
	.st17{fill:#34312E;}
	.st18{fill:#484341;}
	.st19{fill:#EDEDED;}
</style>
<g id="sticker_2">
	<g>
		<g id="XMLID_205_">
			<g>
				<path class="st0" d="M237.4,193.6c-0.8,3.3-4,14.8-2.6,18c1.4,3.2,10.1,5.9,12.4,6.9c4.1,1.8,8.6,3.5,12.9,4.7
					c1.1,0.3,3-0.6,3.6-2.6c1.6-5.2,2.9-10.2,4-15.5c0.6-3,2.5-9.2,3.2-13.3c0.3-2-0.4-3.9-1.7-4.7c-3.2-1.9-9-5.4-12.1-7.2
					c-4-2.3-11.5-7.1-14.2-3.4C241.2,178.7,238.9,187.5,237.4,193.6z M237.5,209.6c0.1,0,3.2-11.7,4.1-16.1c1-4.9,3.9-14.4,4-14.6
					c0.2,0.1,16.4,7.8,21.9,11.8c-0.2,3.2-2.7,10.5-3.6,14.9c-0.9,4.6-2.1,8.3-3.3,12.9C255.4,216.5,237.5,209.7,237.5,209.6z"/>
				<path class="st1" d="M241.6,193.6c-0.9,4.4-4,16.1-4.1,16.1c0,0,17.9,6.9,23,8.9c1.2-4.6,2.4-8.3,3.3-12.9
					c0.9-4.4,3.4-11.7,3.6-14.9c-5.4-4-21.7-11.7-21.9-11.8C245.5,179.1,242.6,188.6,241.6,193.6z"/>
			</g>
			<g>
			</g>
		</g>
		<g id="XMLID_204_">
			<g>
				<path class="st0" d="M248.8,210.9c-2.2,10.2-2.5,18.8,5.6,22.5c8.5,3.9,17,6.2,26.9,7.9c6.4,1.2,12.3,2.8,19,1.6
					c3.8-0.7,7.9-19.2,9.4-25.8c1.3-5.8,3.7-13.8,0.6-18.7c-4.7-7.5-12.1-8.9-19.7-11.8c-8.1-3-23.6-10.1-30.4-6.2
					C251.9,185.2,251.3,199.5,248.8,210.9z M251.8,224c-0.6-3.4,0.9-9.7,1.3-13c1.2-9.2,4.8-22,7.4-24.9c5.7-6.4,27.9,2.9,34.3,5.7
					c4.2,1.8,13.8,5.1,14.2,12.3c0.1,2.6-2.5,14.1-3.9,19c-1.2,4.2-3.9,14.5-5.6,15.1c-4.8,1.3-13.1,0-17.7-1
					c-7.5-1.7-14.1-2.9-21.5-5.3C256.9,230.9,252.6,229,251.8,224z"/>
				<path class="st2" d="M253.1,211c-0.4,3.3-1.9,9.6-1.3,13c0.9,5,5.2,6.9,8.6,8c7.4,2.4,14,3.6,21.5,5.3c4.5,1,12.9,2.3,17.7,1
					c1.7-0.5,4.4-10.9,5.6-15.1c1.4-4.9,4.1-16.4,3.9-19c-0.4-7.2-10-10.5-14.2-12.3c-6.4-2.8-28.7-12.1-34.3-5.7
					C257.9,189,254.3,201.8,253.1,211z"/>
			</g>
			<g>
			</g>
		</g>
		<g id="XMLID_203_">
			<g>
				<path class="st0" d="M207.7,167.9c-1.5,6.4-3.2,10.8-0.7,16c1.7,3.5,7.2,11.3,11.1,16.5c5.9,7.8,18,25,24.8,22.9
					c4.5-1.4,5.5-7.4,6.7-13.1c2-10,4.5-23.8,5-30.1c0.4-6-1.3-6.5-11.1-15c-6.5-5.7-17.4-13.9-21.2-16.2c-2.6-1.6-4.8-3.5-9.2,1.3
					C212,151.2,209.1,161.9,207.7,167.9z M211.4,185c-4-5.4-2.2-8.5,0.6-20c1.1-4.6,2.4-9.6,3.9-11.4c1.9-2.4,3.8-0.7,6,0.7
					c5.4,3.4,10.2,6.7,15.6,11c4.4,3.5,12,8.9,13,13.8c-0.1,5.5-3.2,19-4.9,28.8c-0.5,2.9-1.6,9.1-3.7,9.9c-1.5,0.6-6-0.9-8.6-4.3
					C225.7,203.4,219.1,195.4,211.4,185z"/>
				<path class="st3" d="M212,165c-2.8,11.5-4.6,14.6-0.6,20c7.7,10.4,14.2,18.4,22.1,28.6c2.6,3.4,7.1,4.9,8.6,4.3
					c2-0.8,3.2-7.1,3.7-9.9c1.7-9.8,4.8-23.3,4.9-28.8c-1-4.9-8.7-10.3-13-13.8c-5.4-4.3-10.2-7.6-15.6-11c-2.3-1.4-4.1-3-6-0.7
					C214.5,155.4,213.2,160.4,212,165z"/>
			</g>
			<g>
			</g>
		</g>
		<g id="XMLID_202_">
			<g>
				<path class="st0" d="M290.2,210.5c-0.9,0.9-2.4,7-2.4,8.5c-0.1,1.3,1.1,4.5,2.4,6.3c0.4,0.6,2.6,1.7,3,2c1.4,0.9,4.8,0,5.5-0.3
					c0.3-0.1,2.6-1,2.8-1.9c0.4-2.1,2.2-8.2,1.8-9.4c-0.7-2.3-3.8-6-4-6.1c-0.4-0.3-2.6-1.2-3.1-1.3
					C294.1,208.3,291.5,209.2,290.2,210.5z M292.7,220.1c-0.1-0.7,0.9-5.2,1.3-5.5c0.4-0.4,3-1.3,3.6-1.2c0.5,0.1,2.3,2,2.7,3.4
					c0.1,0.9-0.9,5-1.2,5.4c-0.4,0.3-3.1,1.4-4,1.1C294.5,223.2,292.8,220.7,292.7,220.1z"/>
				<path class="st4" d="M293.9,214.6c-0.4,0.3-1.4,4.7-1.3,5.5c0.2,0.6,1.9,3.1,2.4,3.3c0.8,0.2,3.6-0.8,4-1.1
					c0.4-0.5,1.3-4.6,1.2-5.4c-0.4-1.4-2.2-3.3-2.7-3.4C296.9,213.3,294.3,214.2,293.9,214.6z"/>
			</g>
			<g>
			</g>
		</g>
	</g>
	<g>
		<g id="XMLID_201_">
			<g>
				<path class="st0" d="M243.7,272.9c-0.3,3.1-1.9,14.2-0.2,16.8c1.8,2.5,10.6,2.7,13,3c4.3,0.6,8.8,0.9,13.1,0.9
					c1.2,0,2.8-1.3,3.2-3.2c0.9-5,1.5-9.8,1.8-14.9c0.2-2.8,1.2-8.8,1.3-12.7c0-1.8-0.9-3.4-2.3-3.8c-3.3-0.9-9.5-2.6-12.7-3.4
					c-4.2-1-12.2-3.4-14.3,0.6C245.4,258.6,244.3,267.1,243.7,272.9z M246,287.2c0.1,0,1.6-11.2,1.8-15.4c0.3-4.7,1.9-13.9,1.9-14
					c0.2,0,17,2.8,22.9,5c0.2,2.9-1.2,10-1.5,14.2c-0.3,4.3-1,7.9-1.5,12.3C264.3,288.8,246,287.2,246,287.2z"/>
				<path class="st1" d="M247.8,271.8c-0.3,4.1-1.8,15.3-1.8,15.4c0,0,18.3,1.6,23.6,2.1c0.5-4.4,1.2-8,1.5-12.3
					c0.3-4.2,1.7-11.3,1.5-14.2c-5.8-2.2-22.7-5-22.9-5C249.7,257.9,248.1,267.2,247.8,271.8z"/>
			</g>
			<g>
			</g>
		</g>
		<g id="XMLID_200_">
			<g>
				<path class="st0" d="M228.7,248.6c-3.9,0.7-4.4,4.9-4,11.5c0.2,5,0.2,17,0.8,19.9c0.6,3.2,1.1,4.3,3.1,5.4
					c4.5,2.7,8.8,5,13.7,7.2c3.5,1.5,9.6,3.3,13.4,3.2c1.8-0.1,2.3-3.9,2.3-5.6c-0.2-7.1-0.2-13.2-0.4-20.2
					c-0.2-6.6,0-12.2-1.1-15.3C254.2,247.9,236.7,247.2,228.7,248.6z M228.6,273.3c-0.3-4.4-1.5-15.8,0.8-19c2-2.6,8-1.8,10.7-1.6
					c3.1,0.2,9.7,0.4,12.5,3.1c1.8,3.9,1.5,11.6,1.7,16.1c0.3,4.5,0.6,15.8-0.4,18.3c-0.6,1.4-15.7-4.8-19.5-6.7
					c-1.1-0.6-4.4-2.4-5.2-3.8C228.9,278.8,228.7,275.2,228.6,273.3z"/>
				<path class="st3" d="M229.4,254.3c-2.4,3.2-1.1,14.5-0.8,19c0.1,1.9,0.3,5.6,0.7,6.4c0.7,1.5,4.1,3.3,5.2,3.8
					c3.8,1.9,18.9,8.1,19.5,6.7c1-2.5,0.7-13.8,0.4-18.3c-0.2-4.5,0.1-12.2-1.7-16.1c-2.9-2.7-9.5-2.9-12.5-3.1
					C237.4,252.5,231.4,251.7,229.4,254.3z"/>
			</g>
			<g>
			</g>
		</g>
		<g id="XMLID_199_">
			<g>
				<path class="st0" d="M301.5,247.4c6.8,1.3,9,8.2,10.9,30.7c0.8,9,1.4,15.5-5.8,18.6c-8.1,3.4-19,2.9-27.3,2.8
					c-5.8-0.1-17.3-0.4-19-3.1c-2.3-2-2.9-15.9-3.3-22.3c-0.4-6,0-17.6,3.5-19.7c4.3-2.6,10.7-4.7,16.5-5.7
					C285.1,247.3,293.1,245.8,301.5,247.4z M308.4,276.4c-0.8-9.2-2.5-20-3.9-22.6c-3-5.6-16.8-2.8-24-1.7c-5,0.8-15.9,2.1-18.7,8.3
					c-1.7,3.7-0.4,29.2,1.6,31.8c4.2,2.4,9.5,2.7,13.9,2.8c6.7,0.2,13.4,0.3,20.1-0.1c2.7-0.2,9.3-1.1,11.1-4.9
					C309.5,287.7,308.6,279,308.4,276.4z"/>
				<path class="st2" d="M304.5,253.8c1.4,2.6,3.1,13.4,3.9,22.6c0.2,2.6,1.1,11.3,0,13.6c-1.7,3.7-8.4,4.7-11.1,4.9
					c-6.7,0.4-13.4,0.3-20.1,0.1c-4.4-0.1-9.7-0.4-13.9-2.8c-2-2.6-3.3-28.1-1.6-31.8c2.8-6.1,13.7-7.5,18.7-8.3
					C287.6,251,301.4,248.2,304.5,253.8z"/>
			</g>
			<g>
			</g>
		</g>
		<g id="XMLID_198_">
			<g>
				<path class="st0" d="M290.7,269.4c-0.5,1.1,0.2,6.6,0.6,7.9c0.3,1,2.2,3,3.7,3.8c0.5,0.3,2.6,0,3,0.1c1.4,0.1,3.8-2.4,4.3-2.9
					c0.2-0.3,1.8-2.1,1.7-2.9c-0.3-1.8-0.7-7.5-1.3-8.2c-1.2-1.5-4.8-2.8-5-2.8c-0.4,0-2.4,0.3-2.9,0.6
					C293.1,265.7,291.4,267.7,290.7,269.4z M295.5,275.7c-0.3-0.5-0.8-4.5-0.6-4.9c0.2-0.5,2-2.5,2.5-2.7c0.4-0.2,2.4,0.4,3.2,1.3
					c0.3,0.6,0.8,4.3,0.6,4.9c-0.2,0.4-2.1,2.6-2.8,2.8C297.9,277.2,295.8,276.1,295.5,275.7z"/>
				<path class="st4" d="M294.9,270.8c-0.2,0.4,0.3,4.4,0.6,4.9c0.3,0.4,2.4,1.5,2.9,1.4c0.7-0.2,2.6-2.4,2.8-2.8
					c0.1-0.5-0.3-4.2-0.6-4.9c-0.7-0.9-2.7-1.5-3.2-1.3C296.9,268.3,295.1,270.2,294.9,270.8z"/>
			</g>
			<g>
			</g>
		</g>
	</g>
	<g>
		<g id="XMLID_197_">
			<g>
				<path class="st0" d="M259.9,107.1c-1.2,3-5.9,13.3-5,17c0.9,3.6,9,9.2,11,11c3.7,3.2,7.8,6.3,11.8,8.9c1.1,0.7,3,0.4,3.8-1.4
					c2.2-4.6,4.2-9.1,6-14c1-2.7,3.7-8.2,4.9-12.1c0.6-1.9,0.2-4-1-5.2c-2.8-3-7.9-8.4-10.7-11.2c-3.6-3.6-10.2-10.9-13.3-8.1
					C265.6,93.6,262.1,101.5,259.9,107.1z M257.8,123c0.1,0,4.7-10.5,6.2-14.5c1.6-4.5,5.8-13,5.8-13.1c0.1,0.1,14.8,13.2,19.5,19
					c-0.6,3.1-4,9.4-5.5,13.5c-1.5,4.2-3.2,7.5-5,11.6C274.1,135.7,257.8,123,257.8,123z"/>
				<path class="st1" d="M263.9,108.4c-1.5,4-6.1,14.5-6.2,14.5c0,0,16.3,12.7,21,16.5c1.8-4.1,3.4-7.4,5-11.6
					c1.5-4.1,4.9-10.4,5.5-13.5c-4.7-5.8-19.4-18.8-19.5-19C269.7,95.5,265.6,103.9,263.9,108.4z"/>
			</g>
			<g>
			</g>
		</g>
		<g id="XMLID_196_">
			<g>
				<path class="st0" d="M271.4,129.9c-4.8,8.4-10.6,16.5-4.2,23.3c7.6,8.1,15.3,16.5,23.4,23.5c5.8,5.1,10.2,10.2,17.1,11.2
					c2.6,0.4,11.9-14,15-20.1c3.2-6.2,9.3-14.3,6.2-21.4c-4.4-10.1-11.1-15.5-17.6-22.6c-5.8-6.4-13.6-16-21.9-15.6
					C283.3,108.5,276.2,121.4,271.4,129.9z M274.9,155.8c-5.7-5.9-6.7-9.1-5.4-13c1.2-3.8,9.7-18.1,12-21.9
					c4.8-8.1,9.1-9.9,15.8-4.4c6.3,5.1,12.3,11.4,17.9,17.7c3.2,3.7,11.5,10.9,10.6,17.8c-0.7,5.6-15.2,31.7-19,31.3
					C301.4,183.4,281,162.1,274.9,155.8z"/>
				<path class="st2" d="M269.5,142.9c-1.3,3.9-0.4,7,5.4,13c6.1,6.3,26.5,27.6,32,27.6c3.8,0.3,18.3-25.7,19-31.3
					c0.8-7-7.4-14.1-10.6-17.8c-5.6-6.4-11.6-12.7-17.9-17.7c-6.7-5.4-11-3.7-15.8,4.4C279.3,124.7,270.8,139.1,269.5,142.9z"/>
			</g>
			<g>
			</g>
		</g>
		<g id="XMLID_195_">
			<g>
				<path class="st0" d="M238.6,87.8c-3.1,8.2-3.5,11.4-0.1,19.1c3.4,7.8,14.5,37.5,23.7,34.1c4.3-1.6,9.5-15.2,12-20.8
					c2.6-5.9,7.3-19.5,6-24.8c-2.1-7.9-7.9-13.8-12.6-18.4c-4.2-4-12.7-13.2-16.1-12.3C249,65.9,241.1,81.2,238.6,87.8z
					 M240.8,102.9c-1.8-5.5-0.7-9.2,1.5-14.5c2-4.8,8.3-18.6,10.6-18.6c2.7,0,8.8,7.6,11.7,10.5c3.5,3.6,11.6,10.7,12.2,17.2
					c0.5,5.9-3.2,14.1-5.3,18.9c-1.8,4.1-5.5,12.8-8.3,18c-1.6,3-5.9,1-7.7-1.8c-2.1-3.3-5-8.6-5.9-10.3
					C246.1,115.6,243.3,110.5,240.8,102.9z"/>
				<path class="st3" d="M242.3,88.4c-2.2,5.3-3.4,9-1.5,14.5c2.5,7.6,5.3,12.7,8.9,19.5c0.9,1.7,3.8,7,5.9,10.3
					c1.8,2.8,6.1,4.8,7.7,1.8c2.8-5.2,6.5-13.9,8.3-18c2-4.8,5.8-13,5.3-18.9c-0.6-6.6-8.7-13.7-12.2-17.2c-2.9-3-9-10.6-11.7-10.5
					C250.7,69.8,244.3,83.6,242.3,88.4z"/>
			</g>
			<g>
			</g>
		</g>
		<g id="XMLID_194_">
			<g>
				<path class="st0" d="M311.3,144.6c-0.9,0.4-3.2,5-3.5,6.3c-0.3,1,0.1,4.2,0.9,6.3c0.2,0.6,1.8,2.4,2.2,2.9c1,1.3,4,1.8,4.6,1.9
					c0.3,0,2.3,0.1,2.6-0.6c0.7-1.6,3.2-6.1,3.1-7.3c-0.2-2.2-2.2-6.6-2.3-6.7c-0.3-0.4-1.9-2-2.4-2.3
					C314.9,144.2,312.6,144,311.3,144.6z M311.7,153.7c0-0.7,1.6-4.1,2-4.2c0.4-0.2,2.7,0.1,3.2,0.4c0.4,0.3,1.6,2.6,1.7,3.9
					c-0.1,0.8-1.6,3.9-1.9,4.2c-0.4,0.1-2.8-0.1-3.5-0.6C312.7,157.1,311.7,154.3,311.7,153.7z"/>
				<path class="st4" d="M313.7,149.5c-0.3,0.1-1.9,3.5-2,4.2c0,0.6,1,3.4,1.4,3.8c0.6,0.5,3.1,0.7,3.5,0.6c0.4-0.3,1.9-3.4,1.9-4.2
					c-0.1-1.3-1.3-3.7-1.7-3.9C316.4,149.6,314.1,149.3,313.7,149.5z"/>
			</g>
			<g>
			</g>
		</g>
	</g>
	<g id="XMLID_172_">
		<g>
			<path class="st0" d="M263.3,205.2c-0.3,1.5-1.2,6.9-2.6,7.8c-1.4,0.9-6.4-0.6-7.8-0.8c-2.5-0.4-5.1-1.1-7.5-1.8
				c-0.6-0.2-1.4-1.1-1.3-2c0.3-2.5,0.7-4.8,1.3-7.2c0.3-1.3,0.7-4.3,1.3-6.1c0.3-0.9,1-1.4,1.9-1.4c2,0.1,5.7,0.4,7.7,0.6
				c2.5,0.3,7.4,0.5,7.9,2.7C264.6,198.3,263.9,202.4,263.3,205.2z M258.5,209.4c0,0,0.7-4.2,1.1-5.6c0.4-1.7,0.9-5.1,0.9-5.2
				c-0.1,0-7.6-1.2-10.3-1.2c-0.4,1-0.7,3.7-1.1,5.2c-0.4,1.6-0.5,2.9-0.8,4.5C250.5,207.6,258.5,209.4,258.5,209.4z"/>
			<path class="st1" d="M259.6,203.8c-0.4,1.5-1.1,5.6-1.1,5.6c0,0-8-1.8-10.3-2.3c0.3-1.6,0.4-3,0.8-4.5c0.4-1.5,0.6-4.2,1.1-5.2
				c2.7,0,10.3,1.2,10.3,1.2C260.5,198.6,260,202.1,259.6,203.8z"/>
		</g>
		<g>
		</g>
	</g>
	<g id="XMLID_171_">
		<g>
			<path class="st0" d="M271.4,276.5c0,1.5,0.3,7.1-0.9,8.2c-1.1,1.1-6.3,0.4-7.7,0.3c-2.5-0.1-5.2-0.3-7.7-0.7
				c-0.7-0.1-1.6-0.9-1.6-1.8c-0.2-2.5-0.3-4.9-0.2-7.4c0-1.4-0.2-4.4,0-6.3c0.1-0.9,0.7-1.6,1.5-1.6c2-0.2,5.6-0.4,7.6-0.5
				c2.5-0.1,7.3-0.6,8.3,1.5C271.2,269.4,271.4,273.6,271.4,276.5z M267.7,281.4c0,0-0.2-4.3-0.2-5.8c0.1-1.7-0.2-5.2-0.2-5.3
				c-0.1,0-7.6-0.1-10.3,0.3c-0.2,1,0.1,3.8,0.1,5.3c-0.1,1.6,0.1,3,0.1,4.7C259.6,280.8,267.7,281.4,267.7,281.4z"/>
			<path class="st1" d="M267.5,275.6c-0.1,1.6,0.1,5.8,0.2,5.8c0,0-8.1-0.6-10.5-0.8c0-1.7-0.2-3-0.1-4.7c0-1.6-0.3-4.3-0.1-5.3
				c2.7-0.4,10.2-0.3,10.3-0.3C267.3,270.4,267.6,273.9,267.5,275.6z"/>
		</g>
		<g>
		</g>
	</g>
	<g id="XMLID_170_">
		<g>
			<path class="st0" d="M282,132.2c0.8-1.2,4.1-5.5,3.7-7.1c-0.3-1.6-4.8-4.7-5.9-5.6c-2-1.7-4.2-3.3-6.4-4.7
				c-0.6-0.4-1.7-0.4-2.3,0.3c-1.5,1.9-2.9,3.7-4.2,5.7c-0.7,1.1-2.6,3.4-3.4,5c-0.4,0.8-0.3,1.8,0.3,2.4c1.5,1.5,4.2,4.2,5.7,5.6
				c1.9,1.8,5.4,5.5,7.3,4.5C278,137.7,280.4,134.4,282,132.2z M281.7,125.6c0,0-2.5,3.3-3.2,4.5c-0.9,1.4-3,4-3.1,4.1
				c-0.1,0-6-5.2-7.9-7.3c0.4-1,2.1-2.9,2.9-4.2c0.8-1.3,1.7-2.3,2.6-3.6C275,120.5,281.7,125.6,281.7,125.6z"/>
			<path class="st1" d="M278.5,130.2c0.8-1.3,3.2-4.5,3.2-4.5c0,0-6.7-5.1-8.7-6.6c-0.9,1.3-1.8,2.3-2.6,3.6
				c-0.8,1.3-2.5,3.2-2.9,4.2c1.9,2.2,7.9,7.3,7.9,7.3C275.5,134.2,277.6,131.6,278.5,130.2z"/>
		</g>
		<g>
		</g>
	</g>
	<g id="XMLID_169_">
		<g>
			<path class="st0" d="M354.6,261.1c0.1,10.5-11.2,20-17.7,25.5c-7.2,6-20.2,18.4-29.5,17.7c-5.1-0.4-25.4-8.5-22.9-16.4
				c2.7-8.2,15.5-13,21.6-16.5c5.3-3.1,18.4-8.6,18.7-11.4c0.4-5-1.6-15.3-2.3-20.1c-0.9-7-3-12,3.2-14.1c7.4-2.5,15.9-3.2,23.5-3.5
				c0.6,0,1.5,0.2,1.7,1.1C353.2,234.9,354.5,249.4,354.6,261.1z M348.9,265.3c1.1-3.4,0.9-4.6,0.5-8.4c-0.9-9.5-1.8-20.3-3.9-29.5
				c-0.1-0.5-0.2-0.9-0.3-1.1c-1.6-0.1-4.4,0.8-5.4,1c-4.2,0.6-8.7,0.8-12.8,2.1c-0.2,0.1-0.3,0.1-0.4,0.1c0.1,0.4,0.2,0.9,0.3,1.8
				c0.2,1.9,0.5,3.9,0.7,5.8c0.8,5.9,1.5,12.1,1.9,18.1c0.7,10.4-1.2,8.8-12.7,15.7c-4.7,2.8-10.6,5.4-15.2,8.4
				c-3.1,2-10.4,5.3-6.6,9.6c3.2,3.5,10.4,10.6,14,10.2c3.9-0.4,9.3-4.6,12.6-6.9c4.9-3.4,10.9-8,16.2-12.5
				C341.6,276.4,347.2,270.2,348.9,265.3z"/>
			<path class="st1" d="M349.4,256.9c0.3,3.8,0.6,5-0.5,8.4c-1.7,4.9-7.3,11.1-10.9,14.3c-5.3,4.6-11.2,9.2-16.2,12.5
				c-3.3,2.3-8.8,6.5-12.6,6.9c-3.7,0.4-10.8-6.8-14-10.2c-3.8-4.3,3.5-7.5,6.6-9.6c4.6-3,10.5-5.5,15.2-8.4
				c11.5-7,13.5-5.4,12.7-15.7c-0.4-6-1.1-12.2-1.9-18.1c-0.2-1.9-0.6-3.9-0.7-5.8c-0.1-0.9-0.2-1.5-0.3-1.8c0.1,0,0.2,0,0.4-0.1
				c4-1.3,8.6-1.5,12.8-2.1c1-0.1,3.8-1.1,5.4-1c0,0.2,0.1,0.6,0.3,1.1C347.7,236.6,348.6,247.4,349.4,256.9z"/>
		</g>
		<g>
		</g>
	</g>
	<g>
		<g id="XMLID_163_">
			<g>
				<path class="st0" d="M381.5,267.8c3.9,2.1,7.5,3.9,12.9,5.4c11,3.1,31.8-0.8,44.6-6.2c15.3-6.4,20.4-9,35.2-16
					c10.1-4.8,19.3-10.7,27.7-16.9c10.4-7.7,16.1-15.7,16.2-28.3c0-8.2-0.1-17.9-0.3-26.1c-4.2-58.7-71.3-82-122.5-77.3
					c-6.7,0.6-13.6,1.7-20.6,3.3c-41.2,9.4-83.4,35.7-89.6,78.3c-1.4,2.2-2.6,4.6-3.4,7.3c-2.8,9.7-1.5,21.2,2.8,28.6
					c-0.2,2.5-0.6,5.1-1.1,7.5c-1.6,7.3-6.9,12.6-5.3,20.4c2.3,11.5,16.4,27.5,29,24.9c8.2-1.7,14.3-6.9,22-10
					c7.3-2.9,17.9-3,25.6-2.7c7.4,0.3,13.1,1,19.9,4.3C377.3,265.6,379.5,266.7,381.5,267.8z M523.3,179.9c0,0.1,0.3,14.5,0.3,27.2
					c0,2.2-1.2,8.2-1.7,9.8c-2.8,9.2-11,16.8-18.7,21.8c-13.6,8.9-25.6,15.7-41.6,23.8c-13.3,6.7-26.8,11.9-41.7,14.7
					c-10.2,1.9-20.7,1.9-30.8-0.6c-8.7-2.1-15.3-8.8-24.1-11c-13-3.3-27.9-2.1-39.5,4c-7.4,3.9-16,8.8-24.7,7.8
					c-14.8-1.7-33.8-25.6-27.1-40.4c2.4-5.3,5.1-8.7,5.7-14.8c0.6-5.7,0.4-11.6,0.2-17.3c-0.3-12.2-1.3-24,3.1-35.6
					c19.7-51.7,82.4-72.6,133.1-71.7C463.7,98.4,519.5,127.1,523.3,179.9z"/>
				<path class="st5" d="M517.9,179.8c0.2,8.2,0.4,17.8,0.3,26.1c-0.1,12.5-5.8,20.6-16.2,28.3c-8.4,6.2-17.7,12.1-27.7,16.9
					c-14.8,7-20,9.6-35.2,16c-12.8,5.4-33.6,9.3-44.6,6.2c-5.4-1.5-8.9-3.4-12.9-5.4c-1.1-1.1-2.2-2.2-3.3-3.4
					c-1.5-1.6-2.8-3.4-4.1-5.1c-0.4-0.6-0.8-1.1-1-1.8c-0.2-0.7,0-1.4,0.2-2.1c1.3-4.1,1.9-7.9,4.9-11.7l0-0.1
					c0.5-0.1,0.8-0.2,0.9-0.2c0.5-0.1,0-0.3,0-0.3c-11.3-3.3-16.5,0.6-18.2,2.5c-1.1-0.1-2.3-0.1-3.4-0.1c-4.5,0.1-9,0.2-13.5,0.3
					c-0.7-1-4.1-5.1-12.5-4.4c10.5-2.3,16.1-6.6,17.8-8.7c3.7-4.5,2.8-25.2,2.5-36.2c-0.5-24.8,1.2-50.4,9.5-73.7
					c1.7-4.9,8.7-12.6,13.4-17c7-1.6,13.9-2.7,20.6-3.3C446.6,97.8,513.6,121.1,517.9,179.8z M447.2,226.9
					c13-5.2,20.1-21.8,14.1-35.1c-3.3-7.3-10.7-13-18.7-16.3c-9.1-3.8-19.7-3.9-29.1-0.1c-15,6-29,37.1-26.2,48.8
					c1,4.3,3.8,5.5,5.4,5.8C394,230.2,429,232.5,447.2,226.9z"/>
				<path class="st0" d="M457.1,211.4c2.3-5.6,2.3-12.3-0.4-18.4c-2.9-6.4-8.4-11.4-15.3-14.3c-8.1-3.4-17.8-3.4-26.2-0.1
					c-12.5,5-23,28.9-22.7,41c0,1.1,0.1,2.1,0.3,3c0.6,2.5,1.7,2.7,2,2.7c0.3,0,35.7,3.6,50.9-2.4
					C451.1,220.8,455,216.5,457.1,211.4z M461.4,191.8c6,13.3-1.1,29.9-14.1,35.1c-18.3,5.6-53.2,3.3-54.5,3
					c-1.6-0.3-4.4-1.4-5.4-5.8c-2.8-11.7,11.3-42.9,26.2-48.8c9.4-3.7,20-3.7,29.1,0.1C450.6,178.8,458,184.5,461.4,191.8z"/>
				<path class="st6" d="M456.7,193c2.7,6.1,2.7,12.8,0.4,18.4c-8.2,5.2-12.6,6-24.5,7.2c-11.8,1.2-27.9,1.2-40.1,1
					c-0.2-12.1,10.3-36,22.7-41c8.5-3.3,18.1-3.3,26.2,0.1C448.3,181.6,453.8,186.6,456.7,193z"/>
				<path class="st2" d="M432.6,218.5c11.9-1.2,16.3-2,24.5-7.2c-2.1,5.1-6,9.4-11.4,11.5c-15.2,6-50.6,2.5-50.9,2.4
					c-0.3-0.1-1.4-0.3-2-2.7c-0.2-0.9-0.3-1.9-0.3-3C404.7,219.8,420.7,219.7,432.6,218.5z"/>
				<path class="st0" d="M361.1,245.6c1.7-1.9,6.9-5.8,18.2-2.5c0,0,0.4,0.3,0,0.3c-0.1,0-0.4,0.1-0.9,0.2c-2.6,0.5-9.7,2.1-10,4.2
					c-0.2,1.7-1.6,3.2-4.1,3c-2.4-0.3-4.2-1.8-4.1-3.6c0-0.3,0.1-0.6,0.2-0.8l-0.1,0C360.4,246.5,360.6,246.1,361.1,245.6z"/>
				<path class="st3" d="M378.3,264.4c1.1,1.2,2.2,2.3,3.3,3.4c-2.1-1.1-4.2-2.3-6.8-3.5c-6.8-3.2-12.5-3.9-19.9-4.3
					c-7.7-0.3-18.3-0.2-25.6,2.7c-7.7,3.1-13.7,8.3-22,10c-12.5,2.6-26.7-13.3-29-24.9c-1.6-7.9,3.7-13.2,5.3-20.4
					c0.5-2.4,0.9-4.9,1.1-7.5c1.4,2.5,3.3,4.6,5.4,5.9c6.7,4.5,27.5,6.5,34.9,3c1-0.5,3.7-1.6,4.3-5.9c1.8-11.4-7.2-41.8-16.8-47.7
					c-6-3.6-12.8-3.6-18.6,0.1c-3.2,2-6.2,4.9-8.6,8.6c6.3-42.5,48.4-68.9,89.6-78.3c-4.7,4.4-11.6,12.1-13.4,17
					c-8.3,23.3-10,48.9-9.5,73.7c0.2,11.1,1.2,31.8-2.5,36.2c-1.7,2-7.3,6.4-17.8,8.7c0,0,0,0,0,0c-1.5,0.1-3.1,0.4-5,0.8
					c0,0,0,0,0,0c-0.4,0.1-0.8,0.2-1.2,0.3c0,0-0.4,0.3,0,0.3c0.4,0.1,9.8,1.1,10.6,4.4c0.4,1.7,1.9,3.2,4.3,3
					c2.4-0.2,4.2-1.8,4.1-3.6c0-0.3-0.1-0.5-0.3-0.8l0.1,0c0,0,0-0.1-0.1-0.2c4.5-0.1,9-0.2,13.5-0.3c1.1,0,2.3,0,3.4,0.1
					c-0.5,0.5-0.7,0.9-0.7,0.9l0.1,0c-0.1,0.3-0.2,0.5-0.2,0.8c-0.2,1.7,1.7,3.3,4.1,3.6c2.4,0.2,3.9-1.2,4.1-3
					c0.3-2.2,7.4-3.7,10-4.2l0,0.1c-3.1,3.8-3.7,7.6-4.9,11.7c-0.2,0.7-0.4,1.4-0.2,2.1c0.2,0.7,0.6,1.2,1,1.8
					C375.5,261,376.8,262.8,378.3,264.4z"/>
				<path class="st0" d="M344.1,245.7c0.1,0.1,0.1,0.2,0.1,0.2l-0.1,0c0.1,0.3,0.2,0.5,0.3,0.8c0.2,1.7-1.7,3.3-4.1,3.6
					c-2.4,0.2-3.9-1.3-4.3-3c-0.8-3.3-10.2-4.3-10.6-4.4c-0.5-0.1,0-0.3,0-0.3c0.4-0.1,0.8-0.2,1.2-0.3c0,0,0,0,0,0
					c1.8-0.2,3.4-0.5,5-0.8c0,0,0,0,0,0C340,240.7,343.4,244.8,344.1,245.7z"/>
				<path class="st0" d="M324.3,219.8c1-11-6.6-36.6-15-41.7c-5.4-3.2-9.6-1.6-14.7,1.7c-4.4,2.8-7.1,6.6-9,12.9
					c-0.6,1.9-0.9,3.9-1.1,5.9c0-0.7,0-1.4-0.1-2c-0.1-4.3,0.2-8.5,0.8-12.6c2.4-3.7,5.4-6.6,8.6-8.6c5.8-3.7,12.6-3.8,18.6-0.1
					c9.6,5.8,18.6,36.2,16.8,47.7c-0.6,4.2-3.3,5.4-4.3,5.9c-7.4,3.5-28.2,1.5-34.9-3c-2.1-1.3-4-3.3-5.4-5.9
					c0.2-2.4,0.3-4.8,0.3-7.2c0.6,0.4,1.1,0.7,1.6,1.1c1.5,4.1,3.9,7.4,6.7,9.1c2.3,1.4,4.2,1.9,7,2.4c14.7,2.6,20.4,0.3,22.2-0.8
					c0.7-0.4,1.4-1.4,1.8-3.8C324.2,220.5,324.3,220.2,324.3,219.8z"/>
				<path class="st0" d="M331.6,241.3c-1.5,0.3-3.2,0.6-5,0.8C328.5,241.7,330.1,241.4,331.6,241.3z"/>
				<path class="st6" d="M309.3,178.1c8.5,5.1,16.1,30.7,15,41.7c-16.7,0.5-25,2.3-37.8-6c-0.8-2-1.4-4.2-1.7-6.5
					c-0.1-2.9-0.2-5.9-0.3-8.7c0.2-2,0.5-4,1.1-5.9c1.9-6.2,4.5-10.1,9-12.9C299.7,176.6,303.8,174.9,309.3,178.1z"/>
				<path class="st1" d="M324.3,219.8c0,0.3-0.1,0.7-0.1,1c-0.4,2.4-1.1,3.4-1.8,3.8c-1.7,1.1-7.5,3.4-22.2,0.8
					c-2.7-0.5-4.7-1-7-2.4c-2.9-1.7-5.2-5.1-6.7-9.1C299.3,222.1,307.6,220.3,324.3,219.8z"/>
				<path class="st0" d="M286.5,213.9c-0.5-0.3-1.1-0.7-1.6-1.1c0-1.8,0-3.7-0.1-5.5C285.1,209.6,285.7,211.8,286.5,213.9z"/>
				<path class="st0" d="M284.9,212.8c0,2.4-0.1,4.8-0.3,7.2c-4.3-7.4-5.7-18.9-2.8-28.6c0.8-2.7,2-5.1,3.4-7.3
					c-0.6,4-0.9,8.2-0.8,12.6c0,0.7,0,1.3,0.1,2c-0.3,2.9-0.2,5.9,0.3,8.7C284.9,209.1,284.9,211,284.9,212.8z"/>
				<path class="st6" d="M284.5,198.6c0.1,2.8,0.2,5.8,0.3,8.7C284.3,204.5,284.2,201.5,284.5,198.6z"/>
			</g>
			<g>
			</g>
		</g>
	</g>
	<g id="XMLID_161_">
		<g>
			<path class="st0" d="M435.5,100.2c0.1,1.8-4.3,2.5-5.6,2.3c-21.7-2.5-44.3-2.8-57.8,17.4c-7.3,10.9-9.2,25.7-10.1,38.5
				c-1.4,21.1-1.2,41.8-5.4,62.7c-1.3,5.9-1.8,7.8-3.6,11.6c-1.2,2.3-3.7,1.7-3.8-0.2c-0.1-1.4,0-3,0.3-4.3
				c0.6-4.2,0.8-12.4,0.9-15.8c0.3-8.9,0.1-14.3,0.2-23.2c0.2-15.6-0.6-31.2-0.6-46.8c0.1-28.7,1-67.6,32.6-80.7
				C408.4,51,433.7,75.6,435.5,100.2z M388,101.4c13.1-5.5,28.6-4.5,42.4-3.1c-3.8-24.9-31-48.2-58.1-24.1
				c-17.6,15.7-17.7,50.9-17.7,65.7c0,5.9,0.2,48.2,0.6,63.5c1.4-4.5,0.8-48.5,4.5-65.8C363.1,121.7,372.4,107.9,388,101.4z"/>
			<path class="st2" d="M430.4,98.3c-13.8-1.4-29.3-2.5-42.4,3.1c-15.6,6.5-24.8,20.3-28.3,36.3c-3.7,17.3-3.1,61.3-4.5,65.8
				c-0.5-15.3-0.6-57.6-0.6-63.5c0-14.8,0-50.1,17.7-65.7C399.4,50.1,426.5,73.4,430.4,98.3z"/>
		</g>
		<g>
		</g>
	</g>
	<g id="XMLID_160_">
		<g>
			<path class="st0" d="M521.1,268.8c0.4,5.1-8.8,18.3-13.9,23.6c-13.7,14.3-25.3,24-40.5,33.9c-8.2,5.3-18.5,10.7-28.8,14.3
				l-0.4-1.2c0.8-0.2,1.5-0.6,1.4-1.2l-0.2-2.7c15.9-5.7,44.2-26.7,53.5-35.1c7.1-6.3,20.6-18.4,24.1-30.5c0.2-0.8-1-14.7-1.9-24.8
				c-1.2-13.5-2.9-27.5-8.6-31.4c-12.9-8.6-21.8,2.6-21.8,14.1c0,6.3,0.5,7.1,1.2,13.4c0.3,3.5,0.7,7.1,1.4,12.1
				c2,15.1-2.3,17.7-7.5,22.2c-7.5,6.6-19.6,12.7-27.5,15.7c-4.4,1.7-10.1,3-15.6,3.9l-0.1-1.1c-0.1-0.9-1.9-1.1-3.3-0.7l-0.3-2.5
				c5-0.8,12.2-2.3,21.3-5.6c9.4-3.4,22.8-11.4,27.4-17.4c2.7-3.6,1.1-11.3,0.3-17.7c-0.8-6.4-1.4-10.2-2.1-16.9
				c-1.1-10.1,1.3-17.1,5.3-21.6c11-12.5,29.9-4.1,32.4,13.6C518.5,238.2,520.3,257.8,521.1,268.8z"/>
			<path class="st5" d="M514.3,245.1c0.9,10.1,2.1,24,1.9,24.8c-3.4,12.1-17,24.1-24.1,30.5c-9.4,8.4-37.6,29.4-53.5,35.1l-2.8-40.4
				c5.5-0.9,11.1-2.2,15.6-3.9c8-3,20.1-9.1,27.5-15.7c5.2-4.5,9.5-7.1,7.5-22.2c-0.7-5-1.1-8.6-1.4-12.1c-0.6-6.2-1.2-7-1.2-13.4
				c0-11.5,8.9-22.8,21.8-14.1C511.5,217.6,513.1,231.6,514.3,245.1z"/>
			<path class="st0" d="M438.9,338.2c0,0.6-0.6,0.9-1.4,1.2c-1.4,0.3-3.2,0.2-3.3-0.7l-0.1-1.7c0.8-0.2,1.5-0.4,2.3-0.6
				c0.7-0.2,1.5-0.5,2.3-0.8L438.9,338.2z"/>
			<path class="st3" d="M435.9,295.2l2.8,40.4c-0.8,0.3-1.6,0.6-2.3,0.8c-0.8,0.2-1.6,0.4-2.3,0.6l-2.9-41.1
				C432.7,295.7,434.3,295.4,435.9,295.2z"/>
			<path class="st0" d="M437.4,339.4l0.4,1.2c-5.2,1.8-10.4,3.1-15.3,3.7c-24.5,2.9-48.9,3.5-74.2,2.9c-35.3-0.8-50.2-5.5-53.4-8.8
				c-6.9-6.9-7.2-21.8-10.2-44.5c-1.3-7.5,1.8-9,7.7-6.4c20.2,8.9,44.4,8.1,58.6,8.3c24.1,0.4,50.4-1.1,74.1-4
				c1.3-0.2,3.6-0.3,7.1-0.9l0.3,2.5c-0.8,0.2-1.5,0.6-1.5,1.2l0.1,1.3c-2.1,0.3-4,0.6-5.8,0.7c-18.5,2-29.9,2.8-45.9,3.5
				c-25.9,1.1-57.3,1.3-76-3.4c-3.2-0.8-10-2.3-13-5.7c-1.6-0.6-0.4,2.3-0.4,4.6c4,23.3,4.2,34.1,8,38.5c5,5.9,45.3,8.2,64.4,8.4
				c12,0.2,28.7,0.4,40.6-0.7c11.8-1.1,20.7-2.3,30.9-5l0.1,1.7C434.2,339.6,436.1,339.7,437.4,339.4z"/>
			<path class="st0" d="M435.8,294.1l0.1,1.1c-1.6,0.3-3.2,0.5-4.7,0.7l-0.1-1.3c0-0.6,0.6-1,1.5-1.2
				C433.9,293,435.7,293.2,435.8,294.1z"/>
			<path class="st3" d="M431.2,295.9l2.9,41.1c-10.2,2.7-19.1,3.9-30.9,5c-11.9,1.1-28.6,0.8-40.6,0.7c-19.1-0.2-59.4-2.5-64.4-8.4
				c-3.8-4.4-4-15.2-8-38.5c-0.1-2.3-1.3-5.3,0.4-4.6c3.1,3.4,9.8,4.9,13,5.7c18.8,4.6,50.2,4.5,76,3.4c16.1-0.7,27.4-1.5,45.9-3.5
				C427.2,296.4,429.1,296.2,431.2,295.9z"/>
		</g>
		<g>
		</g>
	</g>
	<g id="XMLID_159_">
		<g>
			<path class="st0" d="M520.7,223.1c0.5,2.2,2.8,11.7,1.5,13.8c-1.4,2.2-7,7.7-9.1,8.2c-2.8,1.1-12.2,0.6-13.8,0.6
				c-1.3,0-7.7-3.9-7.9-4.9c-0.5-1.6-2.3-15.1-0.7-16.4c2.9-2.3,5.1-4.8,7-6.2c0.9-0.6,6.4-0.7,9.6-1c0.3,0,0.8,0,1.2,0
				C512.5,217.2,520.1,220.8,520.7,223.1z M517.7,235.5c0.6-1.3-1.1-8-1.4-10.4c-0.2-0.8-4.8-4-5.8-2.9c-1.3,1.6-2.7,2.6-2.7,4.1
				c0.1,2.6,0.6,10.1,1.2,10.7c0.9,1,3.8,3.4,4.8,2.7C515.5,238.4,517.2,236.6,517.7,235.5z M500.4,241.5c0.2,0,5.9,0,6.8,0
				c-1.2-1.2-3.6-3.2-3.8-4.1c-0.8-3.7-0.9-8.8-1.1-11.1c0-0.9,1.1-2.8,2.6-4.5c-0.5,0-4.2,0.4-4.8,0.4c-0.7,0.5-5.3,4.3-5.3,4.3
				c0.1,0.8,0.6,6.6,1,11.6C495.9,238.8,500.4,241.5,500.4,241.5z"/>
			<path class="st4" d="M516.3,225.1c0.3,2.5,2,9.1,1.4,10.4c-0.5,1.1-2.2,2.9-3.8,4.2c-1,0.7-3.9-1.7-4.8-2.7
				c-0.6-0.7-1.1-8.2-1.2-10.7c0-1.5,1.4-2.5,2.7-4.1C511.5,221.1,516.1,224.3,516.3,225.1z"/>
			<path class="st2" d="M507.2,241.5c-0.9,0-6.6,0-6.8,0c0,0-4.5-2.7-4.5-3.3c-0.4-5-0.9-10.8-1-11.6c0,0,4.7-3.8,5.3-4.3
				c0.6,0,4.2-0.4,4.8-0.4c-1.5,1.6-2.6,3.6-2.6,4.5c0.2,2.3,0.3,7.4,1.1,11.1C503.6,238.3,506,240.3,507.2,241.5z"/>
		</g>
		<g>
		</g>
	</g>
	<g id="XMLID_158_">
		<g>
			<path class="st0" d="M475.8,187.4c0.8-0.2,1.6-0.3,2.3-0.5c1-0.2,1.9-0.5,2.6-0.7c0.6-0.2,1.1-0.4,1.1-0.6
				c-1.6-6.5-18.1-35.5-19.8-35.5c-0.4,0-0.9,0.3-1.5,0.8h0c-0.6,0.5-1.3,1.1-2.1,1.8c-0.6,0.6-1.1,1.2-1.7,1.8
				c-0.6,0.7-1.2,1.4-1.8,2.1c-0.6,0.7-1.2,1.4-1.7,2.1c-0.7,0.8-1.3,1.6-1.7,2.3c-0.5,0.6-0.8,1.1-0.9,1.3c0,1.7,4.7,9.5,7.9,15.5
				c1.2,2.2,4.9,9.7,6.8,11.2c0.2,0.1,0.8,0.1,1.6,0c0.9-0.1,2-0.2,3.3-0.4c0.8-0.1,1.5-0.3,2.3-0.4
				C473.6,187.8,474.7,187.6,475.8,187.4z M481.8,175.3c1.4,3.1,5.2,9.4,2.6,12.6c-2.5,3.1-9.7,3.8-13.2,4.2
				c-6.7,0.8-8.1,1.3-11-3.8c-4.3-7.7-9.9-14.8-13.1-23c-1.5-3.8-0.1-5.8,2.7-9.2c3-3.6,6.1-8.7,10.3-11c0.7-0.4,1.7-0.5,3.6,0.3
				c1.6,1.1,5.2,7,7.2,10.3C474.8,162.3,478.7,168.5,481.8,175.3z"/>
			<path class="st3" d="M481.8,185.6c-0.1,0.2-0.5,0.3-1.1,0.6c-6.2-12.1-13-23.8-20.3-35.3c0.6-0.5,1.1-0.8,1.5-0.8
				C463.6,150.1,480.2,179.1,481.8,185.6z"/>
			<path class="st0" d="M480.6,186.2c-0.6,0.2-1.5,0.5-2.6,0.7c-0.5-1-1-1.9-1.5-2.9c-3.3-6-6.8-11.9-10.2-17.8
				c-2.7-4.5-5.3-9-8-13.5c0.8-0.7,1.4-1.4,2.1-1.8h0C467.6,162.4,474.4,174.1,480.6,186.2z"/>
			<path class="st3" d="M476.5,184c0.5,0.9,1,1.9,1.5,2.9c-0.7,0.2-1.4,0.4-2.3,0.5c-5.9-11.2-12.3-22.2-19.2-32.9
				c0.6-0.6,1.1-1.2,1.7-1.8c2.7,4.5,5.3,9,8,13.5C469.8,172.1,473.2,178,476.5,184z"/>
			<path class="st0" d="M475.8,187.4c-1.1,0.2-2.3,0.4-3.4,0.6c-0.6-1.1-1.1-2.2-1.7-3.2c-2.9-5.5-6-10.8-9.1-16.2
				c-2.3-4-4.6-8-6.9-12c0.6-0.7,1.2-1.4,1.8-2.1C463.5,165.2,469.9,176.2,475.8,187.4z"/>
			<path class="st3" d="M470.8,184.8c0.6,1.1,1.1,2.1,1.7,3.2c-0.8,0.1-1.6,0.3-2.3,0.4c-5.3-10.2-11-20.1-17-29.7
				c0.5-0.7,1.1-1.4,1.7-2.1c2.3,4,4.6,8,6.9,12C464.8,174,467.9,179.3,470.8,184.8z"/>
			<path class="st0" d="M470.1,188.4c-1.3,0.2-2.4,0.3-3.3,0.4c-0.3-0.6-0.6-1.1-0.9-1.7c-2.8-5.3-5.7-10.5-8.7-15.8
				c-2-3.5-3.9-7-5.9-10.4c0.5-0.6,1-1.4,1.7-2.3C459.2,168.3,464.8,178.3,470.1,188.4z"/>
			<path class="st3" d="M465.9,187.1c0.3,0.6,0.6,1.1,0.9,1.7c-0.8,0.1-1.3,0.1-1.6,0c-1.9-1.4-5.7-9-6.8-11.2
				c-3.2-5.9-7.9-13.7-7.9-15.5c0.1-0.2,0.4-0.7,0.9-1.3c2,3.5,3.9,7,5.9,10.4C460.2,176.6,463.1,181.8,465.9,187.1z"/>
		</g>
		<g>
		</g>
	</g>
	<g id="XMLID_157_">
		<g>
			<path class="st0" d="M470.1,203c-0.7,0.4-1.1,0.7-1.3,0.9c-0.6,1.6,0.9,10.6,1.8,17.3c0.3,2.4,1.1,10.8,2.3,12.9
				c0.2,0.1,0.7,0.3,1.4,0.5c0.8,0.3,2,0.5,3.2,0.8c0.7,0.2,1.5,0.3,2.3,0.5c1.1,0.2,2.3,0.4,3.4,0.6c0.8,0.1,1.6,0.2,2.3,0.3
				c1,0.2,2,0.3,2.6,0.3c0.7,0,1.1,0,1.3-0.1c0.9-6.6-4-39.7-5.6-40.3c-0.4-0.1-1,0-1.7,0.2c-0.7,0.2-1.6,0.6-2.6,0.9
				c-0.7,0.3-1.4,0.7-2.2,1.1c-0.8,0.4-1.7,0.8-2.5,1.3c-0.8,0.4-1.6,0.9-2.4,1.3C471.6,202.1,470.8,202.6,470.1,203z M493.2,227.5
				c0.2,3.4,1.5,10.6-2.1,12.7c-3.4,2-10.4,0-13.8-0.9c-6.5-1.7-8-1.7-8.9-7.5c-1.2-8.7-3.9-17.4-3.8-26.2c0-4.1,2-5.4,5.8-7.5
				c4.1-2.3,8.9-5.9,13.6-6.5c0.8-0.1,1.8,0.1,3.2,1.6c1.1,1.6,2.3,8.4,3,12.2C491.5,212.8,492.8,220,493.2,227.5z"/>
			<path class="st3" d="M489.5,237c-0.1,0.1-0.6,0.1-1.3,0.1c-1.4-13.5-3.5-26.9-6.1-40.3c0.7-0.2,1.4-0.3,1.7-0.2
				C485.5,197.4,490.4,230.5,489.5,237z"/>
			<path class="st0" d="M488.3,237.2c-0.7,0-1.6-0.1-2.6-0.3c-0.1-1.1-0.2-2.2-0.4-3.2c-0.9-6.8-2-13.5-3.1-20.3
				c-0.8-5.2-1.7-10.3-2.5-15.5c1-0.4,1.8-0.7,2.6-0.9C484.8,210.2,486.8,223.7,488.3,237.2z"/>
			<path class="st3" d="M485.2,233.6c0.1,1.1,0.3,2.2,0.4,3.2c-0.7-0.1-1.5-0.2-2.3-0.3c-1.4-12.6-3.4-25.2-5.9-37.6
				c0.8-0.4,1.5-0.7,2.2-1.1c0.8,5.2,1.7,10.3,2.5,15.5C483.2,220.1,484.3,226.9,485.2,233.6z"/>
			<path class="st0" d="M483.3,236.5c-1.1-0.2-2.3-0.4-3.4-0.6c-0.1-1.2-0.3-2.4-0.4-3.6c-0.7-6.1-1.7-12.3-2.6-18.4
				c-0.7-4.6-1.4-9.1-2.1-13.7c0.8-0.4,1.7-0.9,2.5-1.3C479.9,211.4,481.9,223.9,483.3,236.5z"/>
			<path class="st3" d="M479.6,232.3c0.1,1.2,0.3,2.4,0.4,3.6c-0.8-0.1-1.6-0.3-2.3-0.5c-1.2-11.4-2.9-22.7-5.1-33.9
				c0.8-0.4,1.5-0.9,2.4-1.3c0.7,4.6,1.4,9.2,2.1,13.7C477.9,220,478.8,226.2,479.6,232.3z"/>
			<path class="st0" d="M477.6,235.4c-1.3-0.3-2.4-0.5-3.2-0.8c-0.1-0.6-0.1-1.3-0.2-1.9c-0.7-6-1.5-11.9-2.4-17.8
				c-0.5-4-1.1-7.9-1.7-11.9c0.6-0.4,1.5-0.9,2.4-1.5C474.7,212.7,476.4,224.1,477.6,235.4z"/>
			<path class="st3" d="M474.2,232.7c0.1,0.6,0.1,1.2,0.2,1.9c-0.7-0.2-1.3-0.4-1.4-0.5c-1.2-2-2-10.4-2.3-12.9
				c-0.8-6.7-2.4-15.7-1.8-17.3c0.2-0.2,0.6-0.5,1.3-0.9c0.5,4,1.2,7.9,1.7,11.9C472.7,220.8,473.5,226.8,474.2,232.7z"/>
		</g>
		<g>
		</g>
	</g>
	<g id="XMLID_156_">
		<g>
			<path class="st0" d="M521.2,185.8c3.2,9.5,7.3,43,6.2,49.6c-2.9,17.1-6.8,34.4-11.3,51.2c-1.2,4.5-1.2,6.1-6,6.7
				c-14,1.8-16.1,2.5-22.6-12.1c-3.2-7,5.3-36.4,4.9-43.5c-0.9-16.3-3.5-34.7-7.8-50.4c-6.6-15.4-23.3-38.6-23.3-40.8
				c0.1-6.2,25.1-15.8,27.4-15.6c4.7,0.3,5.9,5.2,8.2,9.2C505.1,154.5,516,170,521.2,185.8z M521.4,239c2.4-12.6-2.8-42.4-6.6-54.7
				c-2.5-8.1-26.3-48.7-26.8-49.4c-0.2,0-22.1,8.7-22.1,11.2c8.9,13.9,16.6,23.8,23,39c2.9,10.5,9.2,49.9,7.4,59.7
				c-2.4,13.4-3.6,21.6-4.8,29.4c-0.7,4.9,3.9,16.1,8.9,16.1c4.2,0,6.4-0.3,8.8-1.1C512,288.3,519.8,247.4,521.4,239z"/>
			<path class="st2" d="M514.9,184.3c3.8,12.3,9,42.1,6.6,54.7c-1.6,8.4-9.4,49.3-12.1,50.3c-2.4,0.8-4.6,1.1-8.8,1.1
				c-5,0-9.6-11.2-8.9-16.1c1.2-7.8,2.4-16,4.8-29.4c1.7-9.8-4.5-49.2-7.4-59.7c-6.5-15.2-14.2-25.1-23-39
				c0.1-2.6,22-11.2,22.1-11.2C488.6,135.6,512.4,176.3,514.9,184.3z"/>
		</g>
		<g>
		</g>
	</g>
	<g id="XMLID_155_">
		<g>
			<path class="st0" d="M518.2,271.7c-0.2,1.5-0.7,7.1-2.2,7.9s-7.2-0.7-8.8-1c-2.8-0.5-5.8-1.2-8.6-2c-0.7-0.2-1.6-1.1-1.6-2.1
				c0.1-2.5,0.4-4.9,0.9-7.3c0.2-1.4,0.4-4.4,0.9-6.2c0.2-0.9,1-1.4,2-1.4c2.3,0.2,6.5,0.6,8.7,0.8c2.9,0.3,8.3,0.7,9.2,3
				C519.1,264.7,518.6,268.9,518.2,271.7z M513.2,275.9c0,0,0.4-4.2,0.7-5.8c0.3-1.7,0.5-5.2,0.5-5.3c-0.1,0-8.6-1.4-11.7-1.5
				c-0.4,1-0.5,3.7-0.7,5.3c-0.3,1.6-0.3,3-0.5,4.6C504.1,273.9,513.2,275.9,513.2,275.9z"/>
			<path class="st1" d="M513.9,270.2c-0.3,1.5-0.7,5.7-0.7,5.8c0,0-9.1-2-11.8-2.6c0.2-1.6,0.3-3,0.5-4.6c0.3-1.5,0.3-4.3,0.7-5.3
				c3.1,0,11.6,1.5,11.7,1.5C514.4,264.9,514.2,268.5,513.9,270.2z"/>
		</g>
		<g>
		</g>
	</g>
	<g id="XMLID_129_">
		<g>
			<path class="st0" d="M519.3,213.8c0.2,1.5,1.4,7,0.2,8.2c-1.2,1.2-7.2,1.4-8.7,1.6c-2.9,0.3-5.9,0.5-8.9,0.6
				c-0.8,0-1.9-0.6-2.1-1.6c-0.6-2.5-1-4.8-1.3-7.3c-0.1-1.4-0.9-4.3-0.9-6.2c0-0.9,0.6-1.7,1.5-1.9c2.2-0.5,6.4-1.3,8.5-1.7
				c2.8-0.5,8.2-1.8,9.6,0.2C518.1,206.8,518.9,210.9,519.3,213.8z M515.8,219.2c-0.1,0-0.9-4.2-1-5.7c-0.2-1.7-1-5.2-1-5.2
				c-0.1,0-8.7,1.1-11.7,2c-0.1,1.1,0.7,3.7,0.8,5.3c0.2,1.6,0.5,3,0.8,4.6C506.5,219.9,515.8,219.3,515.8,219.2z"/>
			<path class="st1" d="M514.8,213.5c0.2,1.5,1,5.7,1,5.7c0,0-9.3,0.7-12,0.9c-0.3-1.6-0.7-3-0.8-4.6c-0.2-1.5-0.9-4.2-0.8-5.3
				c3-0.8,11.6-2,11.7-2C513.8,208.4,514.6,211.8,514.8,213.5z"/>
		</g>
		<g>
		</g>
	</g>
	<g id="XMLID_128_">
		<g>
			<path class="st0" d="M499.8,155.3c0.7,1.4,3.6,6.1,3,7.7c-0.7,1.6-6.3,3.7-7.7,4.4c-2.6,1.3-5.4,2.5-8.1,3.5
				c-0.7,0.3-2,0.1-2.6-0.7c-1.4-2.1-2.6-4.2-3.7-6.4c-0.6-1.2-2.3-3.8-3-5.5c-0.3-0.8,0-1.8,0.8-2.3c1.9-1.2,5.5-3.4,7.5-4.5
				c2.5-1.4,7.1-4.4,9.1-3.1C496.3,149.1,498.5,152.8,499.8,155.3z M498.3,161.6c-0.1,0-2.2-3.6-2.9-5.1c-0.7-1.6-2.7-4.5-2.7-4.6
				c-0.1,0-7.8,4-10.3,5.8c0.3,1,1.9,3.3,2.5,4.7c0.7,1.5,1.5,2.6,2.3,4C489.8,165.4,498.3,161.7,498.3,161.6z"/>
			<path class="st1" d="M495.5,156.6c0.7,1.4,2.8,5,2.9,5.1c0,0-8.6,3.8-11,4.9c-0.8-1.4-1.6-2.6-2.3-4c-0.7-1.4-2.3-3.6-2.5-4.7
				c2.5-1.8,10.2-5.8,10.3-5.8C492.8,152.1,494.7,155,495.5,156.6z"/>
		</g>
		<g>
		</g>
	</g>
	<g>
		<g id="XMLID_127_">
			<g>
				<path class="st0" d="M597.1,272.4c0.4,3.1,2.6,14.2,0.2,16.8c-2.4,2.5-14.6,2.7-17.8,3c-5.9,0.6-12.1,0.9-18,0.9
					c-1.6,0-3.9-1.3-4.3-3.2c-1.2-5-2-9.8-2.5-14.9c-0.3-2.8-1.7-8.9-1.8-12.7c0-1.8,1.3-3.4,3.2-3.8c4.6-0.9,13-2.6,17.5-3.4
					c5.7-1,16.7-3.4,19.6,0.6C594.8,258.1,596.3,266.6,597.1,272.4z M594.1,286.7c-0.1,0-2.2-11.3-2.5-15.4
					c-0.4-4.7-2.6-13.9-2.6-14.1c-0.2,0-23.4,2.8-31.4,5c-0.4,2.9,1.7,10,2,14.2c0.4,4.3,1.3,7.9,2.1,12.3
					C568.9,288.3,594,286.7,594.1,286.7z"/>
				<path class="st1" d="M591.5,271.3c0.4,4.1,2.4,15.3,2.5,15.4c0,0-25.1,1.6-32.4,2.1c-0.7-4.4-1.7-8-2.1-12.3
					c-0.4-4.2-2.4-11.3-2-14.2c8-2.2,31.1-5,31.4-5C588.9,257.4,591.1,266.6,591.5,271.3z"/>
			</g>
			<g>
			</g>
		</g>
		<g id="XMLID_126_">
			<g>
				<path class="st0" d="M617.8,248.1c5.3,0.7,6,4.9,5.5,11.5c-0.3,5-0.3,17-1.1,19.8c-0.9,3.2-1.6,4.3-4.2,5.4
					c-6.2,2.7-12,5-18.9,7.2c-4.8,1.5-13.2,3.3-18.4,3.1c-2.4,0-3.1-3.9-3.1-5.6c0.3-7.1,0.2-13.2,0.5-20.2c0.2-6.6,0-12.2,1.5-15.3
					C582.8,247.3,606.8,246.6,617.8,248.1z M617.9,272.7c0.4-4.5,2.1-15.8-1.1-19c-2.7-2.7-11-1.8-14.7-1.6
					c-4.2,0.2-13.3,0.4-17.2,3.1c-2.5,3.9-2,11.6-2.4,16.1c-0.3,4.5-0.8,15.8,0.6,18.3c0.8,1.4,21.6-4.7,26.7-6.7
					c1.4-0.5,6.1-2.3,7.1-3.8C617.5,278.3,617.8,274.6,617.9,272.7z"/>
				<path class="st5" d="M616.8,253.8c3.2,3.2,1.5,14.5,1.1,19c-0.2,1.9-0.4,5.6-1,6.4c-1,1.5-5.7,3.3-7.1,3.8
					c-5.2,2-25.9,8.1-26.7,6.7c-1.4-2.5-0.9-13.8-0.6-18.3c0.3-4.5-0.1-12.2,2.4-16.1c4-2.7,13-2.9,17.2-3.1
					C605.8,251.9,614.1,251.1,616.8,253.8z"/>
			</g>
			<g>
			</g>
		</g>
		<g id="XMLID_125_">
			<g>
				<path class="st0" d="M517.8,246.9c-9.3,1.3-12.4,8.2-15,30.7c-1,9-2,15.5,7.9,18.6c11.1,3.4,26,2.9,37.5,2.8
					c8-0.1,23.8-0.4,26.1-3.1c3.1-2,4-15.9,4.5-22.2c0.5-6,0-17.6-4.8-19.7c-5.9-2.6-14.7-4.7-22.7-5.7
					C540.3,246.7,529.3,245.2,517.8,246.9z M508.3,275.8c1.1-9.2,3.5-20,5.4-22.6c4.2-5.6,23.1-2.8,32.9-1.7
					c6.9,0.8,21.8,2.2,25.7,8.3c2.3,3.7,0.6,29.2-2.2,31.8c-5.8,2.4-13,2.7-19.1,2.8c-9.2,0.2-18.3,0.3-27.6-0.1
					c-3.7-0.2-12.8-1.1-15.2-4.8C506.9,287.1,508,278.4,508.3,275.8z"/>
				<path class="st3" d="M513.7,253.2c-1.9,2.6-4.3,13.4-5.4,22.6c-0.3,2.6-1.5,11.3,0,13.6c2.4,3.7,11.5,4.7,15.2,4.8
					c9.2,0.4,18.3,0.3,27.6,0.1c6.1-0.1,13.3-0.4,19.1-2.8c2.8-2.6,4.5-28.1,2.2-31.8c-3.9-6.1-18.8-7.5-25.7-8.3
					C536.8,250.4,517.9,247.7,513.7,253.2z"/>
			</g>
			<g>
			</g>
		</g>
		<g id="XMLID_119_">
			<g>
				<path class="st0" d="M532.7,268.8c0.6,1.1-0.2,6.6-0.8,7.8c-0.5,1-3,3-5.2,3.8c-0.7,0.3-3.5,0-4.1,0.1c-1.9,0.1-5.3-2.4-5.9-2.9
					c-0.3-0.3-2.4-2.1-2.3-2.9c0.4-1.8,0.9-7.5,1.8-8.2c1.7-1.5,6.6-2.8,6.8-2.8c0.6,0,3.3,0.3,4,0.6
					C529.3,265.2,531.7,267.2,532.7,268.8z M526.1,275.1c0.4-0.5,1.1-4.5,0.8-4.9c-0.3-0.6-2.8-2.5-3.5-2.7
					c-0.6-0.2-3.3,0.4-4.4,1.3c-0.4,0.6-1.1,4.3-0.9,4.9c0.3,0.5,2.9,2.6,3.9,2.8C522.7,276.6,525.6,275.5,526.1,275.1z"/>
				<path class="st4" d="M526.9,270.2c0.3,0.4-0.4,4.4-0.8,4.9c-0.5,0.4-3.3,1.5-4,1.4c-1-0.2-3.6-2.4-3.9-2.8
					c-0.2-0.5,0.4-4.2,0.9-4.9c1-0.9,3.8-1.5,4.4-1.3C524.1,267.7,526.6,269.7,526.9,270.2z"/>
			</g>
			<g>
			</g>
		</g>
	</g>
	<g>
		<g id="XMLID_118_">
			<g>
				<path class="st0" d="M605.9,195.7c0.6,3.4,3.2,15.3,0.8,18.3c-2.3,3-14.7,4.5-17.9,5.3c-5.9,1.3-12.2,2.3-18.3,3
					c-1.6,0.2-4-1-4.5-3c-1.4-5.3-2.4-10.5-3.1-15.9c-0.4-3-2.1-9.5-2.3-13.7c-0.1-2,1.1-3.8,3.1-4.5c4.6-1.5,13-4.3,17.6-5.6
					c5.8-1.7,16.7-5.6,19.9-1.6C603,180.4,604.8,189.5,605.9,195.7z M603.3,211.7c-0.1,0-2.6-12-3.1-16.5c-0.6-5-3.1-14.9-3.2-15
					c-0.2,0-23.5,5.6-31.5,8.9c-0.3,3.2,2,10.7,2.6,15.2c0.6,4.6,1.7,8.5,2.6,13.2C578,216.2,603.3,211.7,603.3,211.7z"/>
				<path class="st1" d="M600.2,195.1c0.5,4.5,3,16.5,3.1,16.5c0,0-25.4,4.5-32.7,5.9c-0.9-4.7-2-8.6-2.6-13.2
					c-0.6-4.5-2.8-12.1-2.6-15.2c8-3.3,31.3-8.9,31.5-8.9C597,180.3,599.6,190.2,600.2,195.1z"/>
			</g>
			<g>
			</g>
		</g>
		<g id="XMLID_117_">
			<g>
				<path class="st0" d="M587.8,211.5c1.5,10.4,0.5,19-11,21.6c-12.2,2.7-24.1,3.9-37.8,4.4c-8.9,0.3-17.1,1.2-26.1-0.9
					c-5.1-1.2-7.9-20.2-8.9-26.9c-0.9-5.9-2.9-14.2,2-18.6c7.5-6.8,17.8-7.3,28.7-9.2c11.5-1.9,33.7-7,42.3-2.3
					C587.5,185.5,586.1,199.8,587.8,211.5z M581.7,224.1c1.3-3.3,0.3-9.8,0.2-13.1c-0.3-9.3-3.2-22.5-6.2-25.7
					c-6.7-7.1-38.4-0.7-47.6,1.2c-6.1,1.3-19.6,3.3-21.2,10.4c-0.6,2.6,1.3,14.4,2.4,19.4c1,4.3,3.1,15,5.3,15.7
					c6.3,1.9,17.9,1.7,24.3,1.3c10.5-0.7,19.7-1.1,30-2.5C573.6,230.3,579.8,228.9,581.7,224.1z"/>
				<path class="st3" d="M581.9,211c0.1,3.3,1.1,9.8-0.2,13.1c-1.9,4.8-8.1,6.2-12.9,6.8c-10.4,1.4-19.6,1.8-30,2.5
					c-6.4,0.4-17.9,0.6-24.3-1.3c-2.2-0.7-4.3-11.4-5.3-15.7c-1.2-5.1-3-16.9-2.4-19.4c1.6-7.1,15.2-9.1,21.2-10.4
					c9.2-1.9,40.9-8.3,47.6-1.2C578.7,188.5,581.6,201.7,581.9,211z"/>
			</g>
			<g>
			</g>
		</g>
		<g id="XMLID_116_">
			<g>
				<path class="st0" d="M650.2,174c1,6.5,2.7,11.1-1.5,16c-2.8,3.3-11.5,10.3-17.6,14.9c-9.3,7-28.3,22.5-37.2,19.6
					c-6-2-6.4-8-7-13.9c-1.2-10.2-2.6-24.2-2.2-30.5c0.3-6.1,2.7-6.3,17.4-13.5c9.8-4.8,25.7-11.5,31.4-13.4c3.8-1.2,7-2.9,12.3,2.4
					C647,156.9,649.3,167.8,650.2,174z M642.3,190.5c6.1-4.8,4.2-8,2.2-19.7c-0.8-4.7-1.9-9.7-3.5-11.7c-2.1-2.6-4.9-1.2-8.2-0.1
					c-7.8,2.7-14.7,5.3-22.7,8.9c-6.4,2.9-17.5,7.2-19.6,11.9c-0.7,5.4,1.4,19,2.2,28.9c0.2,2.9,0.8,9.2,3.4,10.2
					c1.9,0.8,8.2-0.1,12.2-3.1C620.4,206.8,630.4,199.7,642.3,190.5z"/>
				<path class="st5" d="M644.5,170.8c2,11.7,3.9,14.9-2.2,19.7c-11.8,9.2-21.9,16.3-33.9,25.3c-4,3-10.3,3.9-12.2,3.1
					c-2.6-1.1-3.2-7.3-3.4-10.2c-0.8-9.8-2.9-23.5-2.2-28.9c2.1-4.7,13.2-9,19.6-11.9c8-3.6,14.9-6.2,22.7-8.9
					c3.2-1.1,6-2.4,8.2,0.1C642.6,161.1,643.6,166.1,644.5,170.8z"/>
			</g>
			<g>
			</g>
		</g>
		<g id="XMLID_115_">
			<g>
				<path class="st0" d="M531.4,205.7c1.1,1,2.2,7.2,2,8.7c-0.1,1.3-2.2,4.3-4.1,6c-0.6,0.5-3.8,1.3-4.4,1.6c-2,0.7-6.6-0.6-7.5-1
					c-0.4-0.2-3.4-1.3-3.5-2.3c-0.3-2.1-1.8-8.4-1.1-9.6c1.3-2.2,6.1-5.4,6.4-5.5c0.6-0.2,3.7-0.9,4.5-0.9
					C526.5,203,529.8,204.2,531.4,205.7z M526.6,214.9c0.3-0.7-0.4-5.2-0.9-5.6c-0.5-0.5-3.9-1.7-4.7-1.6c-0.7,0-3.5,1.7-4.3,3
					c-0.2,0.8,0.5,5.1,0.9,5.6c0.5,0.4,4.1,1.8,5.2,1.6C523.6,217.8,526.3,215.5,526.6,214.9z"/>
				<path class="st4" d="M525.8,209.3c0.4,0.3,1.2,4.8,0.9,5.6c-0.3,0.6-3,2.9-3.8,3c-1.2,0.2-4.7-1.2-5.2-1.6
					c-0.4-0.5-1.1-4.7-0.9-5.6c0.8-1.3,3.5-3,4.3-3C521.9,207.7,525.3,208.8,525.8,209.3z"/>
			</g>
			<g>
			</g>
		</g>
	</g>
	<g>
		<g id="XMLID_114_">
			<g>
				<path class="st0" d="M575.9,105.7c1.7,3,8.1,13.3,6.9,17c-1.2,3.6-12.3,9.2-15.2,11c-5.1,3.2-10.7,6.3-16.2,8.9
					c-1.4,0.7-4.1,0.4-5.2-1.4c-3.1-4.6-5.8-9.1-8.2-14c-1.4-2.7-5.1-8.2-6.7-12.1c-0.8-1.9-0.2-4,1.4-5.2c3.8-3,10.9-8.4,14.7-11.2
					c4.9-3.6,13.9-10.9,18.2-8.1C568,92.2,572.8,100.1,575.9,105.7z M578.8,121.5c-0.1,0-6.5-10.5-8.5-14.5c-2.2-4.5-7.9-13-8-13.1
					c-0.2,0.1-20.3,13.2-26.8,19c0.8,3.1,5.5,9.4,7.6,13.5c2.1,4.2,4.4,7.5,6.8,11.6C556.4,134.3,578.8,121.6,578.8,121.5z"/>
				<path class="st1" d="M570.3,107c2,4,8.3,14.5,8.5,14.5c0,0-22.4,12.7-28.9,16.5c-2.4-4.1-4.7-7.4-6.8-11.6
					c-2-4.1-6.7-10.4-7.6-13.5c6.5-5.8,26.6-18.8,26.8-19C562.4,94.1,568.1,102.5,570.3,107z"/>
			</g>
			<g>
			</g>
		</g>
		<g id="XMLID_113_">
			<g>
				<path class="st0" d="M560.9,126.8c4.7,9,11,17.9,0.8,23.6c-12,6.8-24.2,14-36.6,19.8c-8.9,4.1-15.9,8.5-25.5,8.5
					c-3.7,0-13.2-15.6-16.2-22.1c-3-6.6-9.7-15.5-4-22c8.1-9.3,18.2-13.6,28.6-19.8c9.2-5.4,21.7-13.8,33-12.2
					C549,103.8,556.1,117.6,560.9,126.8z M550.7,151.8c9-5,10.9-8,10-12c-0.9-3.9-9.5-19.4-11.8-23.4c-4.9-8.7-10.3-11.1-20.5-6.8
					c-9.6,4.1-19.1,9.4-28,14.9c-5.2,3.2-17.8,9-18.1,16c-0.3,5.6,14.1,33.6,19.3,33.8C509,175.2,541.1,157.2,550.7,151.8z"/>
				<path class="st3" d="M560.7,139.8c0.9,4-1,7-10,12c-9.6,5.4-41.7,23.3-49.2,22.5c-5.3-0.3-19.6-28.2-19.3-33.8
					c0.3-7,13-12.9,18.1-16c8.9-5.5,18.4-10.8,28-14.9c10.3-4.4,15.6-2,20.5,6.8C551.2,120.5,559.8,135.9,560.7,139.8z"/>
			</g>
			<g>
			</g>
		</g>
		<g id="XMLID_112_">
			<g>
				<path class="st0" d="M605.2,86.4c4.3,8.2,4.8,11.4,0.1,19.1c-4.7,7.8-19.9,37.5-32.5,34.1c-5.9-1.6-13-15.2-16.4-20.8
					c-3.6-5.9-10.1-19.5-8.2-24.8c2.8-7.9,10.9-13.8,17.3-18.4c5.7-4,17.5-13.2,22.2-12.3C590.9,64.4,601.7,79.8,605.2,86.4z
					 M602.1,101.5c2.5-5.5,0.9-9.2-2.1-14.5c-2.8-4.8-11.4-18.6-14.5-18.6c-3.7,0-12,7.6-16.1,10.5c-4.8,3.6-15.9,10.7-16.7,17.2
					c-0.7,5.9,4.4,14.1,7.2,18.9c2.4,4.1,7.5,12.8,11.4,18c2.2,3,8.1,1,10.6-1.8c2.8-3.3,6.9-8.6,8.1-10.3
					C594.9,114.2,598.6,109.1,602.1,101.5z"/>
				<path class="st5" d="M600,87c3,5.3,4.6,9,2.1,14.5c-3.5,7.6-7.2,12.7-12.2,19.5c-1.2,1.7-5.3,7-8.1,10.3
					c-2.4,2.8-8.3,4.8-10.6,1.8c-3.8-5.2-9-13.9-11.4-18c-2.8-4.8-7.9-13-7.2-18.9c0.8-6.6,12-13.7,16.7-17.2
					c4-3,12.4-10.6,16.1-10.5C588.6,68.4,597.3,82.2,600,87z"/>
			</g>
			<g>
			</g>
		</g>
		<g id="XMLID_111_">
			<g>
				<path class="st0" d="M505.3,143.2c1.2,0.4,4.3,5,4.8,6.3c0.4,1.1-0.2,4.2-1.2,6.3c-0.3,0.6-2.6,2.4-3,2.9
					c-1.3,1.3-5.5,1.8-6.3,1.9c-0.4,0-3.2,0.1-3.6-0.6c-1-1.6-4.4-6.1-4.3-7.3c0.3-2.2,3-6.6,3.1-6.7c0.4-0.4,2.6-2.1,3.3-2.3
					C500.4,142.8,503.5,142.6,505.3,143.2z M504.8,152.3c0-0.7-2.2-4-2.7-4.1c-0.6-0.2-3.7,0.1-4.4,0.4c-0.6,0.3-2.2,2.6-2.3,3.9
					c0.1,0.8,2.2,3.9,2.7,4.2c0.5,0.1,3.9,0,4.8-0.6C503.4,155.7,504.7,152.9,504.8,152.3z"/>
				<path class="st4" d="M502.1,148.1c0.5,0.1,2.7,3.5,2.7,4.1c0,0.6-1.4,3.4-2,3.8c-0.9,0.5-4.2,0.7-4.8,0.6
					c-0.5-0.2-2.6-3.4-2.7-4.2c0.2-1.3,1.8-3.6,2.3-3.9C498.3,148.2,501.5,147.9,502.1,148.1z"/>
			</g>
			<g>
			</g>
		</g>
	</g>
	<g id="XMLID_110_">
		<g>
			<path class="st0" d="M595.2,203.2c0.2,1.5,1.4,7,0.2,8.2c-1.2,1.2-7.2,1.4-8.7,1.6c-2.9,0.3-5.9,0.5-8.9,0.6
				c-0.8,0-1.9-0.6-2.1-1.6c-0.6-2.5-1-4.8-1.3-7.3c-0.1-1.4-0.9-4.3-0.9-6.2c0-0.9,0.6-1.7,1.5-1.9c2.2-0.5,6.4-1.3,8.5-1.7
				c2.8-0.5,8.2-1.8,9.6,0.2C594,196.2,594.8,200.3,595.2,203.2z M591.7,208.6c-0.1,0-0.9-4.2-1-5.7c-0.2-1.7-1-5.2-1-5.2
				c-0.1,0-8.7,1.1-11.7,2c-0.1,1.1,0.7,3.7,0.8,5.3c0.2,1.6,0.5,3,0.8,4.6C582.3,209.3,591.6,208.7,591.7,208.6z"/>
			<path class="st1" d="M590.7,202.9c0.2,1.5,1,5.7,1,5.7c0,0-9.3,0.7-12,0.9c-0.3-1.6-0.7-3-0.8-4.6c-0.2-1.5-0.9-4.2-0.8-5.3
				c3-0.8,11.6-2,11.7-2C589.6,197.8,590.5,201.2,590.7,202.9z"/>
		</g>
		<g>
		</g>
	</g>
	<g id="XMLID_109_">
		<g>
			<path class="st0" d="M586.3,276.8c-0.1,1.6,0,7.1-1.4,8.1s-7.3,0-8.9-0.1c-2.9-0.2-5.9-0.6-8.8-1.1c-0.8-0.1-1.8-1-1.8-2
				c-0.1-2.5-0.1-4.9,0.1-7.4c0.1-1.4,0-4.4,0.3-6.3c0.1-0.9,0.9-1.5,1.9-1.6c2.3,0,6.5-0.1,8.7-0.1c2.9,0,8.4-0.2,9.4,2
				C586.4,269.8,586.4,274,586.3,276.8z M581.8,281.6c0,0,0-4.3,0.1-5.8c0.2-1.7,0-5.3,0-5.3c-0.1,0-8.7-0.5-11.8-0.3
				c-0.3,1-0.1,3.8-0.2,5.3c-0.1,1.6,0,3-0.1,4.6C572.4,280.5,581.7,281.6,581.8,281.6z"/>
			<path class="st1" d="M581.9,275.8c-0.1,1.5-0.1,5.8-0.1,5.8c0,0-9.3-1.1-12-1.4c0-1.7-0.1-3.1,0.1-4.6c0.1-1.6-0.1-4.3,0.2-5.3
				c3.1-0.3,11.7,0.3,11.8,0.3C581.8,270.5,582,274,581.9,275.8z"/>
		</g>
		<g>
		</g>
	</g>
	<g id="XMLID_108_">
		<g>
			<path class="st0" d="M565.4,118.4c0.8,1.3,3.8,6,3.2,7.6c-0.6,1.6-6.2,3.9-7.6,4.6c-2.5,1.3-5.3,2.6-8,3.7
				c-0.7,0.3-2,0.1-2.6-0.7c-1.5-2.1-2.7-4.1-3.9-6.3c-0.6-1.2-2.4-3.7-3.1-5.5c-0.4-0.8-0.1-1.8,0.7-2.3c1.9-1.3,5.5-3.6,7.3-4.7
				c2.4-1.5,7-4.6,9-3.3C561.8,112.4,564,116,565.4,118.4z M564.1,124.8c-0.1,0-2.3-3.6-3-5c-0.8-1.5-2.8-4.4-2.8-4.5
				c-0.1,0-7.7,4.2-10.1,6.1c0.3,1,2,3.2,2.7,4.6c0.8,1.4,1.6,2.6,2.4,4C555.7,128.9,564.1,124.9,564.1,124.8z"/>
			<path class="st1" d="M561.1,119.9c0.7,1.4,3,5,3,5c0,0-8.5,4-10.9,5.2c-0.9-1.4-1.7-2.5-2.4-4c-0.7-1.4-2.4-3.6-2.7-4.6
				c2.5-1.9,10.1-6,10.1-6.1C558.3,115.4,560.3,118.3,561.1,119.9z"/>
		</g>
		<g>
		</g>
	</g>
	<g>
		<g id="XMLID_107_">
			<g>
				<path class="st7" d="M262.5,330.3c2.8-3.4,15.2-4,12.3,1.6c-2.4,4.7-5,9.9-7.1,13.9c-3.1,5.8-8.1,14.2-11.9,19.6
					c-2.9,4.1-6.4,0.5-8.2-2.7c-2.4-4.3,2.5-9.9,4.6-13.7c3.3-6.1,6.6-12.1,10-18.1C262.3,330.6,262.4,330.5,262.5,330.3z
					 M270.4,332.9c0.5-1.4-4.1-1.8-4.4-0.9c-2.9,5.1-14.8,25.7-15.5,27.1c-1.3,2,2,4.7,3.1,2.9C256.5,357.8,269.6,334.4,270.4,332.9
					z"/>
				<path class="st8" d="M266,332c0.3-0.9,4.9-0.5,4.4,0.9c-0.8,1.5-13.9,24.9-16.7,29.1c-1.2,1.8-4.4-0.9-3.1-2.9
					C251.2,357.7,263.1,337.1,266,332z"/>
			</g>
			<g>
			</g>
		</g>
		<g id="XMLID_103_">
			<g>
				<path class="st7" d="M237.4,352.5c3.2,2.9,9.6,6.6,8.8,11.4c-0.7,3.7-2.8,8.2-6.9,5.3c-5.3-3.9-12.8-10.2-17.6-14.6
					c-3.3-3-7.3-7.1-11.2-10.8c-4.5-4.4,7.3-7.8,11.1-5.5c0.2,0.1,0.4,0.3,0.5,0.4C227.2,343.3,232.3,347.9,237.4,352.5z
					 M240.2,365.4c1.7,1.4,3.9-2.3,2-3.7c-1.1-1.1-19.1-16.7-23.5-20.6c-0.6-0.7-4.8,1.1-3.9,2.3
					C216.1,344.5,236.2,362.3,240.2,365.4z"/>
				<path class="st8" d="M242.3,361.6c1.9,1.4-0.3,5.1-2,3.7c-4-3.1-24.1-20.9-25.3-22c-0.9-1.2,3.3-3.1,3.9-2.3
					C223.2,344.9,241.1,360.5,242.3,361.6z"/>
			</g>
			<g>
			</g>
		</g>
		<g id="XMLID_102_">
			<g>
				<path class="st7" d="M264.2,426.6c0.1,3.6-14,6.2-16.9,4c-0.9-1.3-16.2-113-15.6-114c1.5-2.8,13.2-4.7,15.5-3
					C249.2,315.2,264.1,423,264.2,426.6z M260.2,425.7c0.2-0.4-16-108-16.1-108.2c-1.4-1.4-7.9,0.3-8.2,1.4
					c-0.7,4.2,11.3,85.7,15,108.4C252.4,428.4,259.6,427,260.2,425.7z"/>
				<path class="st9" d="M244.1,317.5c0.2,0.2,16.3,107.8,16.1,108.2c-0.6,1.3-7.8,2.7-9.3,1.6c-3.7-22.7-15.7-104.2-15-108.4
					C236.2,317.8,242.6,316.1,244.1,317.5z"/>
			</g>
			<g>
			</g>
		</g>
		<g id="XMLID_101_">
			<g>
				<path class="st7" d="M293.2,311.2c4.2-1,8.1,14.6,3.8,15.9c-19,5.4-93.3,23-109.3,26.8c-2.3,0.5-5.6-14.9-2.1-16
					C194.4,335,269.8,316.8,293.2,311.2z M293.6,323.6c1.1-0.3-0.2-8.5-1.9-8.1c-2.7,0.7-102.2,24.6-102.8,25.7c-1,1.7,0.2,8,2,8
					C205.3,345.6,276.9,327.7,293.6,323.6z"/>
				<path class="st10" d="M291.7,315.5c1.7-0.4,3,7.8,1.9,8.1c-16.7,4-88.3,22-102.7,25.6c-1.8,0-3-6.3-2-8
					C189.5,340.2,289.1,316.2,291.7,315.5z"/>
			</g>
			<g>
			</g>
		</g>
	</g>
	<g id="XMLID_100_">
		<g>
			<path class="st0" d="M259.7,417.3c-2.6,1.5-4.8,3.4-7.2,4.3c-3.1,1.1-11.9,3.7-13.6,5.5c-4.6,4.7,7.1,16.6,12.7,12.9
				c0.2-0.2,1.4-0.8,3.2-1.3c1.1-0.3,2.4-0.5,3.9-0.5c8.3,0.1,22.8-1.5,21.1-12.8c-0.4-2.9-1.8-7.9-9.3-9.9
				C265.9,414.4,262.5,415.6,259.7,417.3z M285.1,427.3c0.2,5.1-5.3,9.7-9.4,12.1c-6,3.5-16.7,2.1-20.5,3.8
				c-9.4,4.9-20.1-2.1-21.9-12.1c-0.9-5,1.3-7.3,5.9-9c4.6-1.8,9-2.1,13.2-4.9c2.3-1.5,4-3.4,6.6-4.6
				C270.1,407.4,284.7,413.6,285.1,427.3z"/>
			<path class="st2" d="M279.8,425.5c1.6,11.3-12.9,12.9-21.1,12.8c-1.5,0-2.8,0.2-3.9,0.5c1.6-2.2,3.2-4.4,4.8-6.6
				c0.5-0.8,1.1-1.6,0.9-2.5c-0.2-0.8-0.9-1.3-1.6-1.7c-1.5-1.1-2.8-2.8-2.7-4.7c0.1-1.6,1.1-2.9,2-4.1c0.5-0.6,0.9-1.2,1.4-1.8
				c2.8-1.7,6.2-2.8,10.7-1.7C278,417.6,279.4,422.6,279.8,425.5z"/>
			<path class="st1" d="M260.5,429.6c0.2,0.9-0.4,1.8-0.9,2.5c-1.6,2.2-3.2,4.4-4.8,6.6c-1.8,0.5-3,1.2-3.2,1.3
				c-5.6,3.7-17.3-8.2-12.7-12.9c1.8-1.8,10.5-4.4,13.6-5.5c2.4-0.9,4.6-2.8,7.2-4.3c-0.5,0.6-0.9,1.2-1.4,1.8c-1,1.2-2,2.6-2,4.1
				c-0.1,1.9,1.2,3.5,2.7,4.7C259.6,428.3,260.3,428.8,260.5,429.6z"/>
		</g>
		<g>
		</g>
	</g>
	<g>
		<g>
			<path class="st11" d="M191.8,336.3c16.9,12.2,36.5,21.6,55.2,30.7c18.6,9,38,15.9,57.9,21.7c19.8,5.8,39.8,11.5,60.1,15.1
				c21.1,3.8,42.5,4.1,63.9,4.6c25.1,0.5,50.1,1.1,75.2,1.6c1.3,0,3-1.9,1.1-1.9c-21.4-0.5-42.9-0.9-64.3-1.4
				c-21.1-0.5-42.3-0.3-63.3-3.1c-21.3-2.8-42.1-8.6-62.7-14.4c-20.3-5.7-40.4-12.1-59.5-21c-10.4-4.8-20.5-10.1-30.6-15.5
				c-10.5-5.6-21-11.1-30.6-18C193.2,334.1,190.6,335.4,191.8,336.3L191.8,336.3z"/>
		</g>
	</g>
	<g>
		<g>
			<path class="st11" d="M206.5,332.5c16.9,12.2,36.5,21.6,55.2,30.7c18.6,9,38,15.9,57.9,21.7c19.8,5.8,39.8,11.5,60.1,15.1
				c21.1,3.8,42.5,4.1,63.9,4.6c25.1,0.5,50.1,1.1,75.2,1.6c1.3,0,3-1.9,1.1-1.9c-21.4-0.5-42.9-0.9-64.3-1.4
				c-21.1-0.5-42.3-0.3-63.3-3.1c-21.3-2.8-42.1-8.6-62.7-14.4c-20.3-5.7-40.4-12.1-59.5-21c-10.4-4.8-20.5-10.1-30.6-15.5
				c-10.5-5.6-21-11.1-30.6-18C207.8,330.3,205.2,331.6,206.5,332.5L206.5,332.5z"/>
		</g>
	</g>
	<g>
		<g>
			<path class="st11" d="M281.7,314.2c11.9,9.7,25.3,17.4,38.5,25.3c13.9,8.3,28.1,16.2,42.9,22.7c14.5,6.3,29.5,11.5,44.4,16.7
				c15.1,5.2,30.3,10.1,45.8,13.7c18,4.1,36.4,5.8,54.7,7.3c1.3,0.1,3-1.8,1.1-1.9c-21-1.7-41.8-3.8-62.3-9.2
				c-19.4-5-38.4-11.7-57.3-18.6c-19.6-7.1-38.4-15.6-56.5-25.9c-16.7-9.6-34.2-19.3-49.1-31.6C283.1,311.9,280.5,313.2,281.7,314.2
				L281.7,314.2z"/>
		</g>
	</g>
	<g>
		<g>
			<path class="st11" d="M267.8,317.7c11.9,9.7,25.3,17.4,38.5,25.3c13.9,8.3,28.1,16.2,42.9,22.7c14.5,6.3,29.5,11.5,44.4,16.7
				c15.1,5.2,30.3,10.1,45.8,13.7c18,4.1,36.4,5.8,54.7,7.3c1.3,0.1,3-1.8,1.1-1.9c-21-1.7-41.8-3.8-62.3-9.2
				c-19.4-5-38.4-11.7-57.3-18.6c-19.6-7.1-38.4-15.6-56.5-25.9c-16.7-9.6-34.2-19.3-49.1-31.6C269.2,315.4,266.6,316.7,267.8,317.7
				L267.8,317.7z"/>
		</g>
	</g>
	<g id="XMLID_99_">
		<g>
			<path class="st12" d="M458.8,400.3c3.4,0,6.9,0,10.3,0.1c22.6,0.3,45.8,1.7,68-3.4c-15.7-4.7-29.7-11.8-43.7-20.9
				c-3-1.9,1.8-4.3,3.5-4.2c10.1,0.4,19.3-1.8,28.7-4.5c-14-6.5-26-16-35.6-28.3c-1.6-2,1.7-3.5,3.2-3.8c7.1-1.1,13.7-3.1,20.2-5.8
				c-11.7-4.4-21-12.3-27.2-23.4c-1-1.7,0.7-3.2,2.3-3.6c3.3-0.8,6.3-2,9.2-3.7c-9.4-5.1-16.5-12.5-20.9-22.1
				c-0.1-0.1-0.1-0.2-0.1-0.3c-5.9,9-13.1,16.8-21.6,23.4c1.5,0.3,3,0.5,4.5,0.8c2.1-0.2,3.7,1.4,2.4,3.3
				c-8.4,12.1-17.6,23.8-31.2,29.5c6.3,2.7,12.8,3.8,20,3.3c1-0.1,1.7,0.2,2.1,0.5c0.2,0.2,0.4,0.4,0.5,0.7c0.5,0.7,0.4,1.6-0.8,2.6
				c-12.1,10.4-27.6,17.5-42.5,23.7c7,3.2,14.2,5.7,22,5.9c2.2,0,4.2,2.1,1.8,3.8c-11.7,8.2-25.6,14-39.7,16.8
				C414.5,399.9,436.7,400.2,458.8,400.3z M547.5,394.4c3.3,0.8,2.1,3.7-0.5,4.6c-27.9,8.9-58.2,6.3-87,6
				c-26.6-0.3-52.5-0.2-76.5-13.2c-2.7-1.5,1.2-4,2.7-4.2c13.3-1.5,26.9-6.2,38.5-13.2c-7.9-1.2-15.4-4.1-22.7-7.7
				c-2-1-1.6-3.2,0.4-4.1c13.9-5.7,28.9-12,41.1-21c-7.7-0.5-14.8-2.5-22-6.4c-2.3-1.2,0.4-3.7,1.8-4.1
				c13.9-3.5,22.9-14.4,30.8-25.6c-2.3-0.2-4.5-0.8-7-2c-1.7-0.8-1.8-2.5-0.3-3.7c11.5-8.2,20.6-18.2,27.5-30.5
				c1-1.8,5.3-3.2,6.2-0.5c3.9,12.4,12.1,21.9,23.9,27.3c1.6,0.7,1.9,2.6,0.3,3.7c-3.7,2.5-7.4,4.4-11.4,5.9
				c6.6,10.6,16.2,17.8,28.5,21.1c2.5,0.6,1.1,3.3-0.4,4.1c-7.6,3.8-15.3,6.5-23.4,8.2c10,11.9,22.2,20.7,36.8,26.4
				c2.7,1.1,0.8,3.8-1.2,4.4c-10,2.8-19.2,5.5-29.1,6.4C518,384.4,531.7,390.8,547.5,394.4z"/>
			<path class="st13" d="M493.4,376c14,9.1,28,16.3,43.7,20.9c-22.1,5.1-45.4,3.7-68,3.4c-3.4,0-6.9-0.1-10.3-0.1
				c-2.9-1.3-9.2-3.2-10.3-4.7c-0.4-0.5-0.9-1-0.9-1.6c-0.1-0.9,0.6-1.6,1.3-2.1c3.3-2.6,16.3-1.9,19.6-4.5
				c2.3-1.8-5.1-0.7-4.8-10.2c-7.1-0.2-14.1-1.5-20.8-4c9.2-4.1,14.5-11.1,26-13.8c1.7-0.4-3-5.7-5.7-7.9c-0.7-0.6,8-13.5,7.9-13.7
				c-0.2-0.5-0.9-0.5-1.5-0.5c-5.5,0.3-11.1-0.2-16.5-1.6c-0.2-0.1-0.4-0.1-0.6-0.2c0.1-2.2,19.8-17.1,21.3-18.7
				c2.2-2.4-4.6-7.9-0.1-13.5c2.5-2.3-9.1,1.2-7.8-1.2c2.3-3,3.3-6.3,5.6-9.3c3.5-4.7,4.7-10.3,5.1-16.1c4.4,9.6,11.5,17,20.9,22.1
				c-2.8,1.7-5.9,2.9-9.2,3.7c-1.6,0.5-3.3,1.9-2.3,3.6c6.2,11.1,15.5,19.1,27.2,23.4c-6.4,2.7-13.1,4.7-20.2,5.8
				c-1.5,0.2-4.7,1.8-3.2,3.8c9.6,12.3,21.6,21.8,35.6,28.3c-9.4,2.6-18.5,4.9-28.7,4.5C495.2,371.7,490.4,374.1,493.4,376z"/>
			<path class="st14" d="M476.6,276.4c0.1,0.1,0.1,0.2,0.1,0.3c-0.4,5.8-1.5,11.4-5.1,16.1c-2.3,3-3.3,6.3-5.6,9.3
				c-1.3,2.4,10.4-1.1,7.8,1.2c-4.5,5.6,2.3,11.1,0.1,13.5c-1.5,1.6-21.2,16.5-21.3,18.7c0.2,0.1,0.4,0.1,0.6,0.2l-0.4,1.7
				c-0.4-0.4-1.1-0.6-2.1-0.5c-7.1,0.4-13.6-0.7-20-3.3c13.5-5.6,22.8-17.4,31.2-29.5c1.3-1.9-0.3-3.5-2.4-3.3
				c-1.5-0.3-3-0.5-4.5-0.8C463.5,293.2,470.7,285.4,476.6,276.4z"/>
			<path class="st14" d="M469.7,337.3c0.5,0,1.2,0,1.5,0.5c0.1,0.3-8.6,13.1-7.9,13.7c2.7,2.1,7.5,7.5,5.7,7.9
				c-11.6,2.7-16.8,9.6-26,13.8c6.7,2.5,13.7,3.8,20.8,4c-0.3,9.5,7.1,8.4,4.8,10.2c-3.3,2.6-16.3,1.9-19.6,4.5
				c-0.7,0.5-1.5,1.2-1.3,2.1c0.1,0.6,0.5,1.1,0.9,1.6c1,1.5,7.4,3.4,10.3,4.7c-22.1-0.1-44.3-0.3-64.6-9.4
				c14.1-2.8,28-8.6,39.7-16.8c2.4-1.7,0.4-3.8-1.8-3.8c-7.8-0.2-15-2.7-22-5.9c14.9-6.2,30.4-13.3,42.5-23.7c1.2-1,1.3-1.9,0.8-2.6
				c-0.1-0.3-0.2-0.5-0.5-0.7l0.4-1.7C458.6,337,464.2,337.6,469.7,337.3z"/>
		</g>
		<g>
		</g>
	</g>
	<g id="XMLID_98_">
		<g>
			<path class="st15" d="M394.4,403.8c3.6-0.5,7.3-1.1,11-1.7c16-2.3,30.9-3.7,45.9-9.7c-11.6-1.6-20.2-4.7-31.1-9.6
				c-2.3-1,0.7-4.1,1.9-4.4c6.5-1.7,11.4-2.8,17.7-5.7c-10.6-3-18.2-8.4-26.4-16c-1.3-1.2,0.9-3.2,1.9-3.5c4.9-1.6,8-3,12.2-5.7
				c-8.7-1.8-14.8-6.4-20.4-13.6c-0.9-1.1-0.2-2.8,0.8-3.3c2.2-0.9,3.4-1.6,5.2-3.1c-7.2-2.5-11.7-6-15.8-12.3c0,0-0.1-0.1-0.1-0.2
				c-3.2,7-6.8,12.1-12,17.7c1.1,0,1.6,0,2.7,0c1.4-0.4,2.6,0.8,1.9,2.3c-4.6,9.5-8.7,18.4-17.6,23.9c4.8,1.2,8.7,0.4,13.5,0.1
				c1.1-0.1,1.5,0.4,1.8,0.9c0.1,0.1,0.2,0.3,0.2,0.6c0.1,0.6-0.1,1.5-0.6,2.1c-7.4,8.7-17.5,16.3-25.8,20.7
				c5.3,1.5,9.7,1.5,14.7,1.6c1.6,0.1,3.5,1.8,1.9,3.3c-7.3,7.1-14.5,11.7-24.1,15.2C367.8,407.3,380.7,405.9,394.4,403.8z
				 M459.9,389.4c2.4,0.2,1.9,2.4,0.2,3.3c-18.7,9.3-40.3,10.8-60.7,13.7c-18.8,2.7-37,5.6-55.3-0.9c-2.1-0.7,0.4-3,1.4-3.3
				c9.2-2.5,18.3-7.3,25.7-13.5c-5.7,0-11.3-1.2-16.8-2.9c-1.5-0.5-1.5-2.1-0.2-2.9c9.2-5.6,19-11.6,26.7-19.3
				c-5.5,0.5-10.7-0.1-16.2-2.1c-1.7-0.6-0.1-2.7,0.9-3.1c9.4-4,14.6-12.7,18.9-21.4c-1.7,0.1-3.3-0.1-5.1-0.7
				c-1.3-0.4-1.6-1.6-0.6-2.5c7.2-7,12.5-15.1,16.1-24.5c0.5-1.4,3.4-2.9,4.3-1c4.1,8.3,10.9,14.1,19.8,16.6
				c1.2,0.4,1.6,1.6,0.6,2.5c-2.4,2.2-4.8,3.9-7.4,5.4c5.8,6.7,13.4,10.8,22.4,11.8c1.8,0.2,1.2,2.2,0.2,2.9
				c-4.9,3.5-10,6.2-15.6,8.3c8.3,7.2,17.9,12.1,28.8,14.6c2.1,0.5,0.9,2.6-0.4,3.2c-6.7,3.1-13,6-19.8,7.7
				C438.1,385.6,448.4,388.6,459.9,389.4z"/>
			<path class="st12" d="M420.1,382.9c10.9,4.9,19.5,8,31.1,9.6c-15,6-29.9,7.3-45.9,9.7c-3.7,0.5-7.4,1.1-11,1.7
				c-0.1-0.3-0.2-0.6-0.1-0.9c0.2-0.9,1.2-1.5,1.1-2.4c-0.1-1.2-1.8-1.6-2.3-2.7c-0.4-0.9,0.1-1.9,0.9-2.4c0.7-0.5,1.7-0.8,2.5-1.2
				c2.9-1.4,4.4-4.5,5.8-7.4c-4.1,0.2-8.2,0.1-12.4-0.4c1.1-0.7,2.2-1.5,2.9-2.6c0.7-1.1,1-2.5,0.4-3.7c-0.5-0.9-1.4-1.4-2.1-2.1
				c-0.8-0.6-1.5-1.6-1.2-2.6c0.1-0.5,0.5-1,0.9-1.4c3.1-3.5,5.4-7.6,6.9-12.1c-2.1-0.5-4.2-1.2-6.2-2.2c0.9-1.5,3.2-2.1,3.7-3.8
				c0.2-1-0.2-2,0.2-2.9c0.3-0.5,0.8-0.9,1.1-1.3c0.7-1.3-0.6-2.8-1.8-3.7c-1.2-0.9-2.7-2.1-2.3-3.5c0.1-0.5,0.5-1,0.8-1.4
				c2.2-2.7,3.8-5.9,4.6-9.3c0.1-0.6,0.2-1.4-0.3-1.8c-0.3-0.2-0.6-0.2-0.9-0.2c-0.9,0-1.8-0.1-2.8-0.2c0.3-1.6,1.3-3.1,2.1-4.5
				c2-3.7,2.5-8.1,1.4-12.2c4.1,6.2,8.6,9.8,15.8,12.3c-1.8,1.5-3,2.2-5.2,3.1c-1.1,0.5-1.7,2.1-0.8,3.3
				c5.6,7.2,11.7,11.8,20.4,13.6c-4.2,2.7-7.3,4.1-12.2,5.7c-1,0.3-3.2,2.3-1.9,3.5c8.1,7.6,15.8,13,26.4,16
				c-6.3,2.9-11.2,4-17.7,5.7C420.9,378.8,417.8,381.8,420.1,382.9z"/>
			<path class="st16" d="M397.3,315.2c1.1,4,0.6,8.5-1.4,12.2c-0.8,1.5-1.8,2.9-2.1,4.5c0.9,0.1,1.8,0.1,2.8,0.2
				c0.3,0,0.6,0,0.9,0.2c0.5,0.4,0.4,1.1,0.3,1.8c-0.9,3.4-2.5,6.6-4.6,9.3c-0.3,0.4-0.7,0.9-0.8,1.4c-0.4,1.5,1.1,2.7,2.3,3.5
				c1.2,0.9,2.5,2.3,1.8,3.7c-0.3,0.5-0.8,0.8-1.1,1.3c-0.4,0.9,0,1.9-0.2,2.9c-0.4,1.7-2.7,2.3-3.7,3.8l-3.8,0.6
				c0-0.2-0.1-0.4-0.2-0.6c-0.3-0.5-0.7-1-1.8-0.9c-4.8,0.3-8.7,1.1-13.5-0.1c8.9-5.5,13-14.4,17.6-23.9c0.7-1.5-0.4-2.6-1.9-2.3
				c-1.1,0-1.6,0-2.7,0c5.3-5.6,8.8-10.7,12-17.7C397.2,315.1,397.2,315.2,397.3,315.2z"/>
			<path class="st16" d="M402.3,386.8c-1.4,2.9-2.9,6-5.8,7.4c-0.8,0.4-1.8,0.7-2.5,1.2c-0.8,0.6-1.3,1.6-0.9,2.4
				c0.5,1.1,2.2,1.5,2.3,2.7c0,0.9-1,1.5-1.1,2.4c0,0.3,0,0.6,0.1,0.9c-13.7,2.1-26.6,3.5-40.6-0.3c9.7-3.5,16.8-8.2,24.1-15.2
				c1.5-1.5-0.4-3.2-1.9-3.3c-5-0.2-9.4-0.2-14.7-1.6c8.3-4.4,18.4-12,25.8-20.7c0.5-0.6,0.7-1.5,0.6-2.1l3.8-0.6
				c2,1,4.1,1.7,6.2,2.2c-1.5,4.4-3.8,8.6-6.9,12.1c-0.4,0.4-0.7,0.8-0.9,1.4c-0.2,1,0.4,1.9,1.2,2.6c0.8,0.6,1.7,1.2,2.1,2.1
				c0.6,1.2,0.3,2.6-0.4,3.7c-0.7,1.1-1.8,1.8-2.9,2.6C394,386.9,398.1,387.1,402.3,386.8z"/>
		</g>
		<g>
		</g>
	</g>
	<g id="XMLID_88_">
		<g>
			<path class="st17" d="M380.6,396.9c-5.1,2.4-9.5,10.7-15,14.8c0.2-0.1,0.5-0.3,0.8-0.5c-1.6,1.3-3.3,2.9-4.1,4.6
				c-1.2,2.8-0.5,7.6-1,11.1c-0.6,4.2-4.4,7.1,1.1,11.6c1.9,1.5,7.4,2,9.8,2.4c6.9,1.3,14,0.9,20.9,0.9c9.5,0,16.4,0.6,25.1,4.5
				c11.3,5.1,20.8,4,31.5-2.1c4.2-2.4,8.4-4.7,12.8-6.6c2.9-1.3,5.9-2.3,8.7-3.6c4.2-1.9,11.4-6.8,11-12c-0.4-6.4-11.7-10.3-16.5-13
				c-0.1,0-0.3-0.1-0.4-0.2c-3.9-2.2-8.4-6-12-8.7c-3.4-2.5-7-3.2-10.8-3.1c-5.6,0.1-11.4,2.3-16.8,4.1c-4.4,1.4-8.2,1.9-12.2,1.6
				c-3.4-0.2-6.8-0.9-10.6-2C396.8,398.9,386.5,394.2,380.6,396.9C380.7,396.9,380.6,396.9,380.6,396.9z M483.7,413.9
				c9.3,9.3,0.9,18.1-8.4,22.4c-8.8,4.1-17.2,8-25.8,12.6c-5.3,2.8-10.6,4.6-16.5,5c-8.3,0.6-14.4-2-21.8-5.2
				c-9.8-4.2-20.2-2.7-30.6-3c-9.4-0.3-30-0.3-25.9-14.2c1.7-5.7,2-6.9,2.2-12.9c0-2.3-0.5-4.3,0.7-6.6c1.3-2.3,5.3-3.3,7.1-5.2
				c9.3-10.3,11-16.4,25.4-14.3c5.8,0.9,11.2,2.9,16.9,4.2c9.3,2,17.3,0.3,26-2.6c4.4-1.4,8.9-2.5,13.6-1.8c5.9,0.9,10.4,4.6,15,8.2
				C468.2,405.7,477.7,408.1,483.7,413.9z"/>
			<path class="st18" d="M366.4,411.1c-0.3,0.2-0.6,0.4-0.8,0.5c5.6-4.1,10-12.4,15-14.8c3.5,2.6,5.7,7,5.6,11.4
				c0,2.3-0.6,4.5-1,6.8c0,0.3-0.1,0.5,0,0.7c0.2,0.3,0.6,0.4,0.9,0.4c2.4,0.3,4.8-0.3,6.9-1.2s4.1-2.3,6.1-3.7
				c4.6-3.2,9.1-6.7,14.4-8.7c3.9,0.3,7.8-0.2,12.2-1.6c5.5-1.8,11.3-3.9,16.8-4.1c-2.4,3.4-5,6.6-7.9,9.5c-0.3,0.3-0.7,0.7-0.8,1.1
				c-0.3,0.7,0,1.6,0.2,2.3c0.4,1.2,0.8,2.4,1.3,3.6c0.2,0.5,0.3,1,0.3,1.5c0,1.6-1.6,2.7-2.7,3.8c-1.7,1.7-2.8,4.1-2.8,6.5
				c0,0.2,0,0.5,0.1,0.7c0.2,0.3,0.6,0.5,0.9,0.6c2,0.7,4.1,1.5,6.2,1.6c3.3,0.2,6.4-1,9.5-2.3c1-0.4,2.1-0.9,2.9-1.6
				c0.8-0.8,1.3-1.9,1.8-3c1.6-3.4,3.8-6.6,6.7-9c2.1-1.7,4.7-2.9,7.3-3.5c4.9,2.7,16.1,6.7,16.5,13c0.3,5.2-6.8,10.1-11,12
				c-2.8,1.3-5.8,2.3-8.7,3.6c-4.5,1.9-8.6,4.2-12.8,6.6c-10.7,6.2-20.2,7.2-31.5,2.1c-8.6-3.9-15.5-4.5-25.1-4.5
				c-6.9,0-14,0.3-20.9-0.9c-2.4-0.4-7.9-0.9-9.8-2.4c-5.5-4.4-1.7-7.4-1.1-11.6c0.5-3.5-0.2-8.3,1-11.1
				C363,414.1,364.7,412.4,366.4,411.1z"/>
			<path class="st1" d="M465.3,408.7c0.1,0.1,0.2,0.1,0.4,0.2c-2.7,0.5-5.2,1.7-7.3,3.5c-2.9,2.3-5.1,5.6-6.7,9
				c-0.5,1.1-0.9,2.2-1.8,3c-0.8,0.8-1.9,1.2-2.9,1.6c-3.1,1.2-6.2,2.5-9.5,2.3c-2.2-0.1-4.2-0.9-6.2-1.6c-0.4-0.1-0.8-0.3-0.9-0.6
				c-0.1-0.2-0.1-0.5-0.1-0.7c0-2.4,1-4.8,2.8-6.5c1.2-1.1,2.7-2.2,2.7-3.8c0-0.5-0.2-1-0.3-1.5c-0.4-1.2-0.8-2.4-1.3-3.6
				c-0.3-0.7-0.5-1.6-0.2-2.3c0.2-0.4,0.5-0.8,0.8-1.1c2.9-2.9,5.6-6.1,7.9-9.5c3.8-0.1,7.4,0.7,10.8,3.1
				C456.9,402.7,461.4,406.5,465.3,408.7z"/>
			<path class="st1" d="M413.5,402.6c-5.2,2-9.8,5.5-14.4,8.7c-1.9,1.4-3.9,2.7-6.1,3.7s-4.6,1.5-6.9,1.2c-0.3,0-0.7-0.1-0.9-0.4
				c-0.1-0.2-0.1-0.5,0-0.7c0.4-2.2,1-4.5,1-6.8c0-4.4-2.1-8.8-5.6-11.4c0,0,0.1,0,0.1,0c5.8-2.7,16.1,2,22.3,3.8
				C406.7,401.7,410.2,402.4,413.5,402.6z"/>
		</g>
		<g>
		</g>
	</g>
	<g id="XMLID_86_">
		<g>
			<path class="st0" d="M497,387.1c-7,1.9-13.4,5.5-16.1,8.3c-9.2,9.4-10.8,12.3-17.8,16.6c-7.8,4.8-14.8,8.6-18.7,17.8
				c-3.5,8.2-5.5,14.6,3.3,13.5c6.3-0.8,13.8-3.8,20.2-1.8c8.5,2.6,12.6,9.9,21.4,9.8c1.2,0,2.5-0.2,4-0.5
				c20.5-4.7,28.9-14.7,32-16.9c3.1-2.4,9.9-7.3,13.4-11.2c3.7-3.8,8.9-7.9,3.4-13.5c-2.6-2.5-7-4.7-10.3-5.9
				c-7.3-4-7.7-8.8-14.1-13.8C511.9,385.1,504.1,385.2,497,387.1z M435.5,443.4c-2.6-10.6,9.8-24.3,17.2-29.8
				c3.5-2.6,7.5-4.6,11.1-7c5.9-3.8,7.8-7.4,12.6-13.2c3.3-4,5.7-5.9,10.6-7.9c10.4-4.2,25-7.9,34.8-0.1c2.9,2.4,4.1,5.8,6.6,8.3
				c3.7,3.7,8,4.5,12.2,6.9c4.7,2.6,9.4,6.1,9.3,12c0,10-15,18.9-21.5,24.4c0,0-0.1,0-0.1,0.1c-7.6,7.7-20.4,14.2-30.6,17.5
				c-5.3,1.7-10.9,2.6-16.3,0.7c-7.9-2.7-12.2-9.3-21.3-9C452.9,446.6,438.1,453.4,435.5,443.4z"/>
			<path class="st1" d="M447.7,443.4c-8.8,1.1-6.8-5.3-3.3-13.5c4-9.3,10.9-13,18.7-17.8c7-4.3,8.6-7.2,17.8-16.6
				c2.7-2.8,9.1-6.5,16.1-8.3c-2.9,2.6-4.9,6.1-5.8,9.9c-0.8,3.3-0.8,6.9,0.8,9.9c1.5,3,4.7,5.3,8,5.3c-3,5.6-6.1,11.8-5,18.1
				c0.3,1.7,0.9,3.4,1.1,5.2c0.5,4.7-2.1,9-4.6,13c-0.6,1-1.4,2-2.2,2.9c-8.7,0.1-12.8-7.2-21.4-9.8
				C461.5,439.6,454,442.6,447.7,443.4z"/>
			<path class="st2" d="M493.2,450.9c-1.4,0.3-2.7,0.5-4,0.5c0.8-0.9,1.6-1.9,2.2-2.9c2.5-4,5.1-8.3,4.6-13
				c-0.2-1.8-0.8-3.5-1.1-5.2c-1.1-6.3,2-12.5,5-18.1c-3.4,0-6.5-2.3-8-5.3c-1.5-3-1.6-6.6-0.8-9.9c0.9-3.8,3-7.2,5.8-9.9
				c7.1-1.9,14.9-2,20.5,2.5c6.4,5,6.7,9.8,14.1,13.8c3.4,1.2,7.7,3.4,10.3,5.9c5.5,5.6,0.3,9.7-3.4,13.5c-3.5,4-10.2,8.8-13.4,11.2
				C522.1,436.2,513.7,446.2,493.2,450.9z"/>
		</g>
		<g>
		</g>
	</g>
	<g id="XMLID_85_">
		<g>
			<path class="st18" d="M438,437.6c-0.7-0.1-1.4-0.3-2.2-0.5c-7.9-2.4-16.2-4.2-17.8,7c-0.4,2.9-6.6,7.4,0.1,11.4
				c7.4,4.4,13.1,0.1,18.2-0.6c0.3,0,0.5-0.1,0.7-0.1c3.3-0.2,12.4-0.2,14.6-1.5c5.7-3.2-2.2-18-8.6-15.9
				C442.8,437.4,440.7,437.9,438,437.6z M428.4,461.7c-12.2,1.7-23.1-4.6-14.9-18.1c2.7-4.4,0.3-9.6,8.6-11.6
				c6.8-1.6,14.3,1.9,18.5,1.3c10.4-2.1,18.7,7.7,17.6,17.8c-0.5,5-3.3,6.6-8.2,7c-5,0.4-9.2-0.5-14.1,1
				C433.3,460,431.2,461.3,428.4,461.7z"/>
			<path class="st2" d="M418,444.1c1.6-11.2,9.9-9.4,17.8-7c0.7,0.2,1.5,0.4,2.2,0.5c-0.9,1.4-2.1,2.7-3.4,3.8c-1.3,1.2-3,2.5-3,4.2
				c0,0.7,0.2,1.4,0.5,2c1.1,2.6,2.5,5,4.1,7.3c-5.1,0.7-10.8,5.1-18.2,0.6C411.4,451.5,417.6,447,418,444.1z"/>
			<path class="st3" d="M431.7,445.6c0-1.8,1.6-3.1,3-4.2c1.3-1.1,2.4-2.4,3.4-3.8c2.7,0.4,4.8-0.1,5.1-0.2
				c6.4-2,14.3,12.7,8.6,15.9c-2.2,1.3-11.4,1.3-14.6,1.5c-0.2,0-0.5,0.1-0.7,0.1c-1.7-2.2-3.1-4.7-4.1-7.3
				C431.9,447,431.7,446.3,431.7,445.6z"/>
		</g>
		<g>
		</g>
	</g>
	<g id="XMLID_84_">
		<g>
			<path class="st1" d="M623.6,349.2c5.3-1.6,9.2-5.6,15.7-9.5c2.7-1.7,5.9-3.6,10.7-3.6c-5.7-2.7-12.2,0.5-21.1,0.6
				c-7.1,0.1-15.3-2.7-27.9-3.9c-6.6-0.6-8,0.6-14.1-0.8c-8.3-1.8-11.7-6.9-19.8-6.5c-2.8,0.1-6.3,1-10.7,2.9
				c-0.6,0.3-1.7,0.4-2.8,0.3c-1.1-0.1-2.1-0.4-2.6-1.1c-2.1-2.9-7.5-7-12.9-8.1c-3.6-0.7-7.3,0-9.9,3.3c-2.8,3.5-4.9,3.9-7.8,3.2
				c-5.7-1.4-13.1,1.2-16,4.1c-2.2,1.9-4.6,3.4-7.5,4.9c-9.1,4.8-19.7,3.7-28.8,0.6c0,13.9,23.4,18.2,37.1,16.9
				c6.9-0.7,14.7-2.7,21.1,0.9c2.7,1.5,5.7,6,8.5,7.5c5.3,2.9,8-1.8,13.1-3.4c3.4-1,4.4-1.1,8.2-0.5c8.5,1.3,10.9,6.2,21.5,0.9
				c3.4-1.7,7.1-5.9,10.4-7.8c4.6-2.7,9.2-2.8,14.5-2.7c5.2,0.1,10,2,15.1,2.3C619.8,350,621.8,349.8,623.6,349.2z M658.8,335.9
				c1.7,1.4-4.3,3-5.1,3c-10.9,0.4-18.8,12.5-29.8,14.4c-12,2-22.5-4.8-34.3,1.2c-7.6,3.9-10.5,9.5-19.7,9.9
				c-7.2,0.4-14.9-5.1-20.8-2.7c-4.6,1.9-7.1,5.4-12.7,4.8c-2.8-0.3-5.2-1.6-7.4-3.2c-1.8-1.2-3.1-3.5-4.9-4.6
				c-6.6-4.1-14.5-2.3-21.7-1.6c-16.1,1.6-41.5-3.8-40.4-24.6c0.1-2.2,5.2-3.3,6.8-2.6c10.7,4.6,21.2,5.8,31.1-1.6
				c2.6-1.9,4.3-3.8,7.4-5.1c4.8-2,9.7-2.3,14.5-1c8.7-11.7,24.4-8.2,33.2,1.8c4.7-2.4,9.9-3.6,15.4-3.3c9.3,0.5,14.9,7.8,23.9,7.7
				c13.9-0.2,26.4,5.6,40.2,3.7C643.4,331,651.4,329.9,658.8,335.9z"/>
			<path class="st19" d="M628.8,336.8c8.9-0.1,15.5-3.3,21.1-0.6c-4.8,0-8,1.9-10.7,3.6c-6.4,3.9-10.3,7.9-15.7,9.5
				c-1.9-0.1-4-0.4-4.5-1.6c-0.2-0.6-0.3-2.2-0.4-2.9c-0.5-2.9-4.6-3.4-7.5-3.9c-8.1-1.3-13.8,1.8-21.8,0.1
				c-3.9-0.8-7.6-0.9-11.2-2.4c-4.8-2.1-14.5-1.5-19.3,0.8c-0.7-2.1,2.8-8.7,4.1-10.6c0.8-1.2,2.5-2.1,4-3
				c8.1-0.4,11.5,4.7,19.8,6.5c6.1,1.3,7.5,0.2,14.1,0.8C613.5,334.1,621.7,336.9,628.8,336.8z"/>
			<path class="st5" d="M623.6,349.2c-1.8,0.5-3.8,0.8-6.1,0.6c-5.2-0.3-9.9-2.3-15.1-2.3c-5.4-0.1-9.9,0-14.5,2.7
				c-3.3,1.9-7.1,6.2-10.4,7.8c-10.6,5.3-13.1,0.5-21.5-0.9c-3.9-0.6-4.8-0.5-8.2,0.5c-5.1,1.6-7.8,6.3-13.1,3.4
				c-2.8-1.6-5.7-6-8.5-7.5c-6.5-3.6-14.2-1.5-21.1-0.9c-13.6,1.3-37.1-3-37.1-16.9c9.1,3.1,19.7,4.2,28.8-0.6
				c2.9-1.5,5.4-3,7.5-4.9c2.8-2.8,10.3-5.5,16-4.1c3,0.7,5,0.3,7.8-3.2c2.7-3.3,6.3-4,9.9-3.3c-2,0.9-3.7,2.6-4.4,4.7
				c-1.1,3.3-0.2,7.1,1.7,10c0.1,0.2,0.3,0.4,0.5,0.5c0.3,0.1,0.7-0.1,1-0.4c4.5-3.6,10.9-6,16.7-5.7c1.1,0.1,2.3-0.1,2.8-0.3
				c4.4-1.9,7.9-2.7,10.7-2.9c-1.6,0.9-3.2,1.8-4,3c-1.2,1.9-4.7,8.4-4.1,10.6c4.8-2.2,14.5-2.8,19.3-0.8c3.6,1.6,7.3,1.6,11.2,2.4
				c8.1,1.7,13.7-1.4,21.8-0.1c2.9,0.5,6.9,1,7.5,3.9c0.1,0.7,0.2,2.3,0.4,2.9C619.6,348.9,621.7,349.2,623.6,349.2z M514.7,340.1
				c4-1.6,12.4,0.4,12.8-0.9c-0.5-0.8-3.5-0.4-5-1.2c-0.9-0.5-1.7-1.1-2.6-1.6c-1.6-0.8-3.5-1-5.3-1c-1.6-0.1-3.9-0.9-5.1,0.2
				c-0.5,0.4-0.8,1.5-1.2,2.1c-0.6,0.8-1.4,1.3-2.2,1.9c-0.7,0.5-1.5,1.1-2.2,1.6c2,0.6,4,1.2,6,0.9
				C511.6,341.7,513.1,340.7,514.7,340.1z"/>
			<path class="st19" d="M553.5,328.9c-5.8-0.3-12.2,2.1-16.7,5.7c-0.3,0.2-0.6,0.5-1,0.4c-0.2-0.1-0.4-0.3-0.5-0.5
				c-1.9-2.9-2.8-6.7-1.7-10c0.7-2.1,2.4-3.9,4.4-4.7c5.4,1,10.8,5.2,12.9,8.1C551.4,328.5,552.4,328.9,553.5,328.9z"/>
			<path class="st19" d="M527.5,339.2c-0.5,1.3-8.8-0.7-12.8,0.9c-1.6,0.6-3.1,1.6-4.8,1.9c-2,0.3-4.1-0.3-6-0.9
				c0.7-0.5,1.5-1.1,2.2-1.6c0.8-0.6,1.6-1.1,2.2-1.9c0.4-0.6,0.7-1.7,1.2-2.1c1.1-1,3.5-0.2,5.1-0.2c1.8,0.1,3.7,0.2,5.3,1
				c0.9,0.5,1.7,1.1,2.6,1.6C524,338.8,527,338.4,527.5,339.2z"/>
		</g>
		<g>
		</g>
	</g>
	<g id="XMLID_83_">
		<g>
			<path class="st1" d="M547.7,400.6c1.7-0.7,3.7-1.2,5.2-1.7c6.1-2.1,14.6-2.8,20.7-4.3c9.5-2.3,12.8-8.9,21.4-12.6
				c-8.3-2.3-12.1-3.7-19.8-2.9c-1.7,0.2-3.5,0.4-5.6,0.8c-4.7,0.9-10.3,1.8-15.2,1.4c-0.5,0-0.9-0.1-1.4-0.2
				c-5.9-0.8-11.4-3.3-17.1-4.3c-4.7-0.8-9.7-0.5-15.1,2.7c-4.6,2.7-8.9,6.4-12.8,10.3c6.9-0.3,11.8-0.8,18.2,1.8
				c3.2,1.3,5.7,3.9,7,6.2c2.3,4.8,8.4,5.4,12.7,3.5C546.3,401.1,547,400.8,547.7,400.6z M606,380.3c2.7,0.8-1.8,3.2-2.6,3.4
				c-1.2,0.2-2.5,1.1-3.7,1.3c-8.1,3-13.1,9.5-21.4,12.3c-9.9,3.3-20.3,4.3-30.2,7.9c-3.9,1.4-8.4,2.9-12.6,1.5
				c-4.2-1.4-4.7-4.5-7.7-7.3c-7.4-6.9-17.6-4.6-26.8-4.7c-1.7,0-3.1-0.9-1.5-2.4c12.3-11.3,22.9-23,40.9-19
				c9.8,2.2,13.8,5.6,28.6,2.2c3.3-0.8,6.3-1.6,9.8-1.6C587.9,374,597.3,377.9,606,380.3z"/>
			<path class="st19" d="M595,381.9c-8.6,3.8-11.9,10.3-21.4,12.6c-6.2,1.5-14.7,2.2-20.7,4.3c-1.5,0.4-3.4,1-5.2,1.7
				c-0.1,0-0.1-0.1-0.2-0.1c-0.7-0.2-1.4-0.4-1.9-1c-0.4-0.4-0.7-1-0.9-1.6c-0.8-2.3-1-4.7-1.6-7s-1.6-4.6-3.5-6.1
				c-1.7-1.3-4.1-1.9-5-3.8c-0.7-1.5-0.1-3.4,1.3-4.2c5.8,1,11.3,3.5,17.1,4.3c0.3,0.3,0.5,0.5,0.6,0.9c0.8,1.4-2.8,3.9-0.5,4.5
				c10.2,3.1,13.8-4.8,22.1-7.5C582.8,378.3,586.7,379.7,595,381.9z"/>
			<path class="st5" d="M569.6,379.9c2.1-0.4,3.9-0.7,5.6-0.8c-8.3,2.7-11.9,10.5-22.1,7.5c-2.3-0.6,1.3-3.1,0.5-4.5
				c-0.2-0.3-0.4-0.6-0.6-0.9c0.5,0.1,0.9,0.1,1.4,0.2C559.3,381.7,564.9,380.8,569.6,379.9z"/>
			<path class="st5" d="M547.5,400.5c0.1,0,0.1,0.1,0.2,0.1c-0.7,0.3-1.3,0.5-1.9,0.9c-4.3,1.9-10.4,1.3-12.7-3.5
				c-1.3-2.3-3.8-4.9-7-6.2c-6.3-2.6-11.3-2.1-18.2-1.8c4-3.9,8.2-7.6,12.8-10.3c5.4-3.2,10.4-3.5,15.1-2.7c-1.4,0.8-2,2.7-1.3,4.2
				c0.9,1.9,3.3,2.5,5,3.8c1.9,1.4,3,3.8,3.5,6.1s0.9,4.7,1.6,7c0.2,0.6,0.4,1.2,0.9,1.6C546.1,400,546.8,400.3,547.5,400.5z"/>
		</g>
		<g>
		</g>
	</g>
	<g id="XMLID_82_">
		<g>
			<path class="st1" d="M285.7,388c8.8,2.2,18,4.6,24,1.5c4.7-2.5,7.9-3,11.8-6.9c-6.9,0.8-12.6-2.8-18.8-6.5
				c-3-1.8-7.5-5.8-8.8-8.1c-1.4-2.3-4-3.4-6.7-3.6c-1.9-0.1-4,0.2-5.7,1c-1.9,1.1-4.9,1.9-7,2.5c-6.1,2.1-14.6,2.8-20.7,4.3
				c-9.6,2.3-19.4,9.8-25.4,16.5c7.5-2.7,16.9,2.2,30.5-1.2c4.6-1.2,9.2-2.4,14.1-2C276.8,385.8,281.2,386.9,285.7,388z
				 M222.4,393.2c-2.7,0.7,1.3-4.3,1.8-4.9c1-1.4,3.1-3.4,4.7-5.8c4-5.1,11.8-10.1,20.1-12.9c9.9-3.3,20.3-4.3,30.2-7.9
				c3.9-1.4,8.4-2.9,12.6-1.5c4.2,1.4,4.7,4.5,7.7,7.3c7.4,6.9,16.3,11.8,25.6,11.9c1.7,0,2.9,2.2,1.3,3.7
				c-12.3,11.3-21.5,14.6-39.5,10.5c-9.8-2.2-13.8-5.6-28.6-2.2c-3.3,0.8-6.3,1.6-9.7,1.6C239.4,392.9,231.3,391,222.4,393.2z"/>
			<path class="st5" d="M258.9,387.5c-13.5,3.4-23-1.4-30.5,1.2c5.9-6.7,15.8-14.2,25.4-16.5c6.2-1.5,14.7-2.2,20.7-4.3
				c2.1-0.6,5.1-1.5,7-2.5c1.8-0.8,3.8-1.1,5.7-1c-2.2,1.7-4.4,3.5-5.5,6c-0.9,1.9,3,4.1,1.1,5.1c-0.8,0.4-5.7,1.1-6.6,1.5
				c-0.9,0.3-2.2,0.7-2,1.6c0.1,0.5,0.5,1,1,1.3c2.5,2,5.5,3.2,7.8,5.3c1,0.9,1.8,1.9,2.6,2.8c-4.5-1.1-9-2.2-12.8-2.5
				C268.1,385.1,263.5,386.4,258.9,387.5z"/>
			<path class="st19" d="M274.3,378.6c-0.2-0.9,1.1-1.3,2-1.6c0.9-0.3,5.7-1,6.6-1.5c1.9-1-2-3.2-1.1-5.1c1.2-2.5,3.3-4.4,5.5-6
				c2.8,0.2,5.4,1.3,6.7,3.6c1.3,2.3,5.8,6.3,8.8,8.1c6.2,3.7,11.8,7.3,18.8,6.5c-4,3.9-7.1,4.4-11.8,6.9c-6,3.1-15.2,0.8-24-1.5
				c-0.9-1-1.7-2-2.6-2.8c-2.3-2.1-5.4-3.3-7.8-5.3C274.8,379.6,274.4,379.2,274.3,378.6z"/>
		</g>
		<g>
		</g>
	</g>
</g>
</svg>
